<svg xmlns="http://www.w3.org/2000/svg" width="1440" height="960" viewBox="0 0 1440 960" version="1.1"><path d="M 703.996 197.750 C 703.991 213.149, 702.294 237.637, 699.984 255.625 C 694.253 300.256, 681.066 331.097, 655.826 358.899 L 651.151 364.048 641.326 353.790 C 635.922 348.148, 627.225 338.975, 622 333.406 C 611.657 322.381, 609.359 320.565, 610.403 324.235 C 614.742 339.492, 618.267 365.640, 618.394 383.500 C 618.532 403.034, 615.317 432, 613.010 432 C 612.544 432, 611.169 435.038, 609.955 438.750 C 606.727 448.618, 599.415 466.204, 594.320 476.354 C 591.875 481.224, 590.320 485.049, 590.863 484.854 C 592.701 484.195, 613.447 466.567, 621.869 458.508 C 632.565 448.273, 647.260 431.662, 658.627 416.959 C 675.081 395.676, 694.208 353.878, 702.539 321 C 708.272 298.375, 711.488 266.423, 710.422 242.676 C 709.898 231.005, 707.381 198.587, 706.429 191.250 C 705.389 183.233, 704 186.943, 703.996 197.750 M 725.611 211.820 C 725.204 212.479, 725.112 213.801, 725.406 214.759 C 726.575 218.568, 730.019 255.917, 731.040 275.863 C 733.005 314.271, 729.698 353.712, 720.356 403.295 C 718.927 410.882, 718.037 417.370, 718.378 417.712 C 718.720 418.054, 719.141 418.146, 719.312 417.917 C 719.484 417.688, 725.398 402.200, 732.454 383.500 C 739.511 364.800, 745.792 348.494, 746.413 347.264 C 747.388 345.332, 748.418 348.234, 753.966 368.532 C 757.500 381.459, 760.816 391.895, 761.335 391.722 C 761.854 391.549, 766.598 384.681, 771.877 376.461 C 778.525 366.109, 781.571 362.127, 781.787 363.507 C 783.425 373.975, 789.889 395.278, 795.666 409.250 L 799.285 418 811.749 418 C 823.217 418, 824.159 417.860, 823.523 416.250 C 821.935 412.231, 816.974 388.637, 815.375 377.500 C 811.962 353.721, 813.352 317.511, 818.928 285 C 819.918 279.225, 820.528 274.147, 820.283 273.715 C 819.798 272.858, 807.204 284.226, 786.303 304.388 C 778.954 311.476, 772.776 317.101, 772.574 316.888 C 772.372 316.674, 769.602 312.225, 766.419 307 C 752.615 284.340, 742.549 261.449, 732.999 231 C 726.465 210.168, 726.529 210.335, 725.611 211.820 M 709 361.912 C 709 368.187, 706.800 379.693, 704.026 387.925 C 699.595 401.075, 688.607 421.617, 678.593 435.473 C 672.056 444.519, 671.705 443.718, 683.385 446.404 C 687.172 447.275, 690.797 448.708, 691.441 449.588 C 692.442 450.957, 692.873 450.560, 694.419 446.844 C 695.413 444.455, 697.734 439.125, 699.578 435 C 709.872 411.963, 712.361 401.341, 712.352 380.500 C 712.345 364.050, 711.626 357, 709.955 357 C 709.430 357, 709 359.210, 709 361.912 M 808.007 432.750 C 808.010 433.163, 808.907 434.850, 810 436.500 L 811.987 439.500 811.993 435.750 C 811.999 432.664, 811.646 432, 810 432 C 808.900 432, 808.003 432.337, 808.007 432.750 M 737 442.326 C 737 448.867, 738.939 450.995, 747.250 453.578 C 750.413 454.561, 753 455.661, 753 456.022 C 753 456.383, 757.270 457.988, 762.489 459.589 L 771.978 462.500 771.989 471.360 L 772 480.220 776.864 485.541 C 781.761 490.899, 791.640 502.961, 795.675 508.509 L 797.851 511.500 798.863 509 C 799.889 506.466, 806.277 499.487, 811.590 495.095 C 814.729 492.500, 825.706 487.002, 827.750 487.001 C 828.438 487, 829 486.550, 829 486 C 829 485.450, 829.675 485, 830.500 485 C 832.723 485, 832.331 483.839, 829.288 481.412 L 826.575 479.250 820.265 481.625 C 816.794 482.931, 813.515 484, 812.977 484 C 812.429 484, 812 480.747, 812 476.588 L 812 469.175 804.250 464.717 C 793.820 458.717, 786.393 455.031, 774.486 449.943 C 765.145 445.951, 739.826 437, 737.877 437 C 737.395 437, 737 439.397, 737 442.326 M 665.178 458.210 C 662.652 459.062, 660.226 461.629, 655.055 468.923 C 648.018 478.847, 627.179 510.465, 623.037 517.500 C 621.741 519.700, 619.882 522.175, 618.905 523 C 617.106 524.519, 599.954 554.725, 600.238 555.876 C 600.322 556.219, 598.085 561.041, 595.266 566.591 C 591.267 574.467, 589.590 579.298, 587.633 588.591 C 582.347 613.694, 580.404 636.139, 582.023 653.397 C 586.878 705.144, 614.352 734.542, 671.500 749.139 C 683.752 752.269, 685.478 752.458, 701.500 752.433 C 715.567 752.412, 720.005 752.031, 727.222 750.229 C 755.592 743.144, 779.520 728.660, 798.351 707.175 C 810.474 693.343, 817.296 681.181, 819.555 669.375 C 825.639 637.579, 825.432 606.936, 818.970 582.538 C 814.897 567.161, 811.237 559.248, 805.844 554.162 C 798.026 546.789, 793.046 536.388, 793.012 527.364 C 793 524.360, 783.445 507.030, 781.789 507.009 C 781.397 507.004, 780.588 508.913, 779.990 511.250 C 779.393 513.587, 777.351 520.914, 775.452 527.531 L 772 539.563 771.916 565.031 C 771.869 579.039, 771.508 593.087, 771.113 596.250 C 770.718 599.413, 770.523 602, 770.680 602 C 770.837 602, 773.389 598.379, 776.353 593.953 L 781.740 585.906 786.310 599.703 C 798.192 635.574, 797.839 652.020, 784.816 669.373 C 776.239 680.802, 755.696 693.458, 738 698.215 C 726.244 701.375, 702.412 701.374, 690.825 698.214 C 662.291 690.430, 638.531 671.879, 626.511 648 C 620.586 636.230, 619.038 630.431, 618.325 617.338 C 617.504 602.244, 619.188 592.690, 625.411 577.136 C 636.767 548.750, 648.798 525.445, 673.191 484.583 C 683.342 467.577, 687.740 459.340, 687.041 458.641 C 685.591 457.191, 669.160 456.867, 665.178 458.210 M 841 470.883 C 841 471.369, 840.045 472.016, 838.879 472.321 C 836.790 472.868, 836.786 472.913, 838.629 475.255 C 843.116 480.958, 852.043 490.290, 852.538 489.795 C 853.429 488.904, 843.606 470.008, 842.250 470.004 C 841.563 470.002, 841 470.398, 841 470.883 M 615.898 486.124 C 568.832 517.067, 556.039 529.655, 526.744 573.850 C 525.778 575.308, 521.623 583.250, 517.511 591.500 C 510.497 605.572, 509.941 607.176, 508.518 617.424 C 507.588 624.116, 507 635.872, 507 647.767 C 507 668.322, 508.497 679.529, 513.175 694 C 519.592 713.848, 533.830 736.852, 553.123 758.545 C 556.081 761.870, 559.990 766.305, 561.812 768.400 C 563.633 770.496, 565.296 772.038, 565.506 771.827 C 565.717 771.617, 560.824 761.332, 554.634 748.972 C 522.338 684.491, 517.410 649.136, 535.635 612.656 C 538.065 607.792, 541.917 601.042, 544.194 597.656 C 552.169 585.800, 551.495 585.042, 551.548 605.932 C 551.614 632.131, 554.551 646.833, 563.500 665.753 C 568.282 675.865, 581.618 697, 583.216 697 C 583.777 697, 583.895 696.234, 583.486 695.250 C 579.980 686.818, 574.315 663.332, 572.506 649.729 C 571.478 642.002, 571.805 617.114, 573.041 609 C 578.128 575.611, 593.178 540.681, 623.142 492.720 C 628.564 484.041, 633 476.729, 633 476.470 C 633 475.156, 630.034 476.830, 615.898 486.124 M 854.123 508.989 C 848.412 516.872, 846.547 527.630, 849.460 535.886 C 850.262 538.161, 854.075 543.800, 857.931 548.418 C 863.551 555.146, 865.892 557.169, 869.722 558.605 C 872.350 559.591, 874.811 560.853, 875.190 561.411 C 875.570 561.968, 880.455 562.608, 886.046 562.833 L 896.211 563.241 895.504 560.871 C 892.496 550.783, 881.538 533.114, 869.625 519.145 C 865.706 514.549, 861.322 509.408, 859.883 507.720 L 857.266 504.650 854.123 508.989 M 826.293 569.236 C 826.585 570.481, 828.458 577.800, 830.455 585.500 C 832.451 593.200, 835.238 605.800, 836.648 613.500 C 838.057 621.200, 839.388 627.687, 839.605 627.917 C 840.417 628.774, 840.915 627.220, 842.950 617.485 C 845.721 604.224, 847.678 581.356, 846.418 576.960 C 845.515 573.812, 845.015 573.502, 837.993 571.735 C 833.888 570.701, 830.297 569.518, 830.014 569.105 C 829.731 568.692, 828.659 568.043, 827.631 567.663 C 826.077 567.088, 825.851 567.353, 826.293 569.236 M 894.500 574.113 C 892.300 574.538, 888.587 574.911, 886.250 574.942 C 883.913 574.974, 882 575.450, 882 576 C 882 576.550, 880.699 577, 879.109 577 L 876.219 577 879.569 585.901 C 884.843 599.915, 887.023 612.178, 887.676 631.500 C 888.230 647.910, 886.462 673.743, 884.065 684.255 C 883.045 688.727, 884.310 690.131, 885.851 686.237 C 887.672 681.632, 893.789 660.102, 896.430 649 C 899.872 634.532, 902.989 612.201, 902.991 602 C 902.992 593.415, 900.511 575.008, 899.206 573.927 C 898.818 573.605, 896.700 573.689, 894.500 574.113" stroke="none" fill="#fc4c04" fill-rule="evenodd"/><path d="M 127.001 413.750 C 127.002 449.913, 127.300 501.438, 127.664 528.250 L 128.327 577 155.663 577 L 183 577 183 523.500 L 183 470 187.533 470 C 191.648 470, 201.532 473.834, 203 476 C 203.275 476.406, 205.820 477.908, 208.656 479.338 C 211.493 480.769, 213.968 482.346, 214.156 482.845 C 214.345 483.343, 217.313 485.163, 220.750 486.889 C 224.188 488.616, 227.002 490.360, 227.003 490.764 C 227.005 491.169, 229.480 492.834, 232.503 494.465 C 235.527 496.096, 238 497.736, 238 498.111 C 238 498.485, 240.250 500.235, 243 502 C 245.750 503.765, 248 505.515, 248 505.889 C 248 506.263, 249.300 507.337, 250.888 508.275 C 258.021 512.488, 282 538.788, 282 542.397 C 282 542.750, 283.041 544.718, 284.314 546.770 C 287.380 551.712, 290.823 562.994, 291.633 570.750 L 292.285 577 319.642 577 L 347 577 346.980 574.250 C 346.910 564.469, 343.122 549.899, 338.334 540.993 C 335.362 535.465, 335.045 534.936, 330.855 528.500 C 327.561 523.440, 313.102 508.764, 309.058 506.375 C 307.376 505.382, 306 504.235, 306 503.827 C 306 503.418, 303.975 501.898, 301.500 500.447 C 299.025 498.997, 297 497.492, 297 497.103 C 297 496.714, 294.079 494.845, 290.508 492.948 C 286.938 491.052, 284.013 489.224, 284.008 488.887 C 284.004 488.549, 281.188 487.019, 277.750 485.486 C 274.313 483.954, 271.266 482.345, 270.979 481.911 C 270.692 481.478, 266.867 479.689, 262.479 477.937 C 258.091 476.185, 254.275 474.425, 254 474.026 C 253.725 473.626, 251.475 472.621, 249 471.790 L 244.500 470.281 259.250 469.519 C 267.363 469.101, 274 468.425, 274 468.017 C 274 467.609, 276.370 466.997, 279.267 466.656 C 285.741 465.895, 300.191 462.264, 300.947 461.208 C 301.251 460.782, 304.720 459.188, 308.657 457.665 C 312.593 456.143, 316.868 453.977, 318.157 452.853 C 319.445 451.729, 321.715 450.177, 323.200 449.405 C 324.685 448.632, 326.260 447.430, 326.700 446.733 C 327.140 446.036, 328.974 444.256, 330.776 442.776 C 335.805 438.645, 340.464 431.998, 343.290 424.921 C 348.212 412.593, 347.805 400.382, 342.077 388.505 C 338.546 381.185, 326.387 368.245, 320 365.010 C 317.525 363.757, 315.275 362.405, 315 362.005 C 314.261 360.931, 309.058 358.446, 304.500 356.989 C 302.300 356.286, 300.261 355.345, 299.968 354.899 C 299.178 353.694, 288.771 351.122, 278 349.469 C 270.355 348.296, 254.683 348.011, 197.750 348.006 L 127 348 127.001 413.750 M 183 408 L 183 455 213.316 455 C 241.210 455, 254.607 454.087, 256 452.090 C 256.275 451.696, 259.200 450.376, 262.500 449.156 C 268.822 446.820, 274.070 443.084, 280.191 436.563 C 290.675 425.392, 294.409 408.913, 289.565 395.184 C 287.205 388.496, 280.330 378.852, 275.179 375.006 C 272.606 373.085, 270.275 371.235, 270 370.896 C 269.177 369.881, 263.770 367.354, 259.500 365.989 C 257.300 365.286, 255.255 364.337, 254.957 363.880 C 253.737 362.018, 238.947 361.039, 211.750 361.020 L 183 361 183 408 M 347 425.500 L 347 433 366 433 L 385 433 385 459.108 L 385 485.217 387.740 484.529 C 389.247 484.151, 390.709 483.512, 390.990 483.109 C 391.270 482.706, 394.538 481.100, 398.250 479.538 C 401.962 477.977, 405 476.378, 405 475.985 C 405 475.592, 408.375 473.799, 412.500 472 C 416.625 470.201, 420 468.386, 420 467.966 C 420 467.546, 423.488 465.945, 427.750 464.407 C 432.012 462.870, 435.726 461.290, 436.002 460.897 C 437.031 459.435, 452.199 457, 460.276 457 C 468.517 457, 479 459.224, 479 460.971 C 479 461.463, 479.956 462.169, 481.124 462.539 C 486.920 464.379, 498.090 479.895, 501.066 490.238 L 501.853 492.976 498.726 491.358 C 497.005 490.468, 495.049 489.192, 494.378 488.521 C 493.708 487.851, 489.861 486.253, 485.830 484.971 C 481.798 483.689, 478.275 482.337, 478 481.966 C 474.625 477.416, 415.543 477.334, 412 481.874 C 411.725 482.227, 407.563 483.777, 402.750 485.319 C 397.938 486.862, 394 488.478, 394 488.910 C 394 489.343, 392.087 490.546, 389.750 491.585 C 383.617 494.310, 372.524 505.809, 369.322 512.761 C 365.842 520.317, 365.437 533.133, 368.461 540.029 C 372.509 549.261, 381.856 559.186, 390.169 563.079 C 392.826 564.324, 395 565.695, 395 566.127 C 395 566.956, 410.074 572, 412.552 572 C 413.348 572, 414 572.409, 414 572.910 C 414 574.723, 428.833 576.441, 444.500 576.441 C 458.995 576.441, 474.683 574.786, 476 573.118 C 476.275 572.770, 480.438 571.223, 485.250 569.681 C 490.063 568.138, 494 566.544, 494 566.137 C 494 565.731, 496.025 564.415, 498.500 563.212 L 503 561.026 503 569.046 L 503 577.066 514.171 576.783 C 525.059 576.507, 525.382 576.433, 526.921 573.850 C 532.297 564.829, 546.784 544.409, 551.995 538.505 L 558.147 531.537 557.823 512.518 L 557.498 493.500 553.914 486 C 549.883 477.564, 539.460 466.017, 532.250 462 C 529.913 460.697, 528 459.312, 528 458.922 C 528 458.532, 524.962 456.997, 521.250 455.511 C 517.538 454.024, 514.259 452.419, 513.965 451.942 C 513.233 450.759, 496.317 446.306, 489.249 445.437 C 486.087 445.048, 483.179 444.228, 482.786 443.615 C 481.868 442.183, 423.069 442.298, 422.131 443.732 C 421.784 444.263, 417.788 444.976, 413.250 445.317 L 405 445.937 405 439.469 L 405 433 508.250 432.985 C 565.038 432.976, 612.012 432.639, 612.639 432.235 C 614.007 431.352, 615.987 424.578, 615.994 420.750 L 616 418 481.500 418 L 347 418 347 425.500 M 651.742 425.567 L 645.984 433 663.242 432.969 C 682.806 432.933, 680.604 433.848, 686.926 423.126 L 689.948 418 673.724 418.067 L 657.500 418.133 651.742 425.567 M 704.285 423.750 C 703.072 426.913, 701.789 430.288, 701.433 431.250 C 700.850 432.826, 701.592 433, 708.893 433 L 717 433 717 448.535 C 717 465.665, 716.989 465.686, 710.968 459.716 C 709.610 458.370, 706.475 456.248, 704 455 C 701.525 453.752, 699.266 452.370, 698.980 451.928 C 698.693 451.487, 697.231 450.658, 695.730 450.087 C 693.679 449.308, 692.992 449.354, 692.968 450.275 C 692.949 451, 692.400 450.793, 691.622 449.769 C 690.898 448.816, 687.425 447.343, 683.903 446.494 C 680.382 445.646, 675.700 444.400, 673.500 443.726 C 668.240 442.114, 642.764 442.208, 642.220 443.841 C 642.007 444.479, 640.483 445, 638.833 445 C 636.377 445, 633.808 446.952, 624.667 455.764 C 614.153 465.900, 593.030 484.077, 590.864 484.854 C 590.322 485.048, 592.183 480.614, 595.001 474.999 C 597.818 469.384, 599.957 464.623, 599.753 464.420 C 599.309 463.976, 592.458 472.060, 589.133 476.952 C 584.662 483.529, 580.819 494.876, 580.250 503.184 C 579.955 507.483, 580.008 511, 580.366 511 C 580.725 511, 584.952 507.993, 589.759 504.317 C 599.336 496.994, 630.755 476, 632.137 476 C 632.612 476, 633 476.212, 633 476.470 C 633 476.729, 628.564 484.041, 623.142 492.720 C 613.569 508.042, 599.507 532.693, 594.938 542.160 L 592.689 546.820 595.929 550.910 C 597.710 553.159, 599.468 554.982, 599.834 554.959 C 600.200 554.937, 604.325 547.909, 609 539.342 C 613.675 530.776, 618.044 523.553, 618.708 523.292 C 619.373 523.031, 621.139 520.721, 622.632 518.159 C 624.126 515.597, 627.684 509.900, 630.539 505.500 C 633.394 501.100, 636.272 495.250, 636.934 492.500 C 637.597 489.750, 639.474 484.779, 641.106 481.454 C 644.358 474.829, 654.187 463.675, 657.750 462.566 C 658.987 462.180, 660 461.488, 660 461.027 C 660 459.420, 669.401 457, 675.643 457 C 681.428 457, 690.813 459.263, 692 460.944 C 692.275 461.333, 694.133 462.747, 696.128 464.085 C 706.754 471.212, 714.993 487.916, 716.602 505.588 C 717.253 512.751, 715.557 524.239, 712.703 532 C 707.984 544.829, 697.991 556.363, 688.528 559.904 C 677.498 564.030, 662.397 562.018, 655.270 555.472 C 653.196 553.568, 651.205 552.007, 650.844 552.005 C 649.867 551.998, 643 542.186, 643 540.798 C 643 540.048, 642.658 539.955, 642.085 540.550 C 640.921 541.758, 628 569.712, 628 571.022 C 628 571.560, 628.637 572, 629.417 572 C 630.196 572, 630.983 572.445, 631.167 572.990 C 631.814 574.912, 651.944 577.225, 663 576.648 C 674.419 576.053, 685 574.232, 685 572.862 C 685 572.388, 685.684 572, 686.520 572 C 688.514 572, 700.235 567.227, 700.947 566.124 C 701.251 565.654, 703.372 564.320, 705.661 563.160 C 707.949 562, 711.324 559.678, 713.161 558 L 716.500 554.949 716.778 579.724 C 716.933 593.578, 716.594 607.508, 716.007 611.324 C 714.750 619.508, 711.152 627.046, 707.594 628.949 C 706.167 629.713, 705 630.680, 705 631.098 C 705 631.516, 702.548 632.367, 699.552 632.989 C 694.123 634.116, 683.384 633.041, 682.058 631.238 C 681.751 630.821, 679.109 629.381, 676.188 628.039 C 673.266 626.698, 670.566 625.105, 670.188 624.500 C 669.809 623.895, 667.925 622.327, 666 621.016 C 662.802 618.837, 659.861 616.343, 653.390 610.318 C 652.100 609.118, 649.348 606.894, 647.273 605.375 C 645.198 603.857, 643.050 602.105, 642.500 601.484 C 641.950 600.862, 639.250 599.058, 636.500 597.475 C 633.750 595.891, 631.275 594.308, 631 593.956 C 630.211 592.947, 621.009 589.657, 620.474 590.193 C 619.365 591.302, 617.938 607.194, 618.158 616 C 618.465 628.319, 619.045 629.572, 625.129 631.031 C 627.808 631.674, 630 632.523, 630 632.918 C 630 633.314, 635.063 634.923, 641.250 636.495 C 647.438 638.067, 652.737 639.700, 653.026 640.124 C 653.316 640.548, 659.166 642.065, 666.026 643.496 C 681.414 646.705, 698.938 647.665, 713.767 646.113 C 724.806 644.957, 739.888 641.683, 740.947 640.213 C 741.251 639.790, 743.491 638.566, 745.924 637.492 C 751.829 634.886, 762.032 624.702, 764.952 618.500 C 766.247 615.750, 768.230 610.350, 769.359 606.500 C 771.324 599.796, 771.425 596.602, 771.746 531 L 772.081 462.500 762.540 459.589 C 757.293 457.988, 753 456.372, 753 455.997 C 753 455.623, 751.087 454.744, 748.750 454.045 C 746.413 453.346, 742.813 452.043, 740.750 451.151 L 737 449.528 737 441.264 L 737 433 771.375 433 C 790.281 433, 807.156 432.719, 808.875 432.375 L 812 431.750 812 457.983 L 812 484.217 814.750 483.530 C 819.219 482.413, 832 476.878, 832 476.059 C 832 475.643, 833.913 474.460, 836.250 473.429 C 838.587 472.399, 840.725 471.275, 841 470.932 C 841.275 470.589, 842.737 470.005, 844.250 469.635 C 845.763 469.265, 847 468.566, 847 468.082 C 847 467.599, 850.487 465.945, 854.750 464.407 C 859.013 462.870, 862.726 461.290, 863.002 460.897 C 864.031 459.435, 879.199 457, 887.276 457 C 895.517 457, 906 459.224, 906 460.971 C 906 461.463, 906.956 462.169, 908.124 462.539 C 913.920 464.379, 925.090 479.895, 928.066 490.238 L 928.853 492.976 925.726 491.358 C 924.005 490.468, 922.049 489.192, 921.378 488.521 C 920.708 487.851, 916.861 486.253, 912.830 484.971 C 908.798 483.689, 905.275 482.346, 905 481.988 C 902.991 479.366, 872.523 477.137, 856.709 478.454 L 848.055 479.175 850.595 484.187 C 851.992 486.943, 852.858 489.476, 852.519 489.814 C 852.181 490.152, 850.091 488.308, 847.874 485.715 C 845.128 482.502, 843.073 481, 841.422 481 C 840.090 481, 839 481.365, 839 481.811 C 839 482.257, 836.750 483.199, 834 483.903 C 831.250 484.608, 829 485.593, 829 486.092 C 829 486.592, 828.438 487, 827.750 487.001 C 825.706 487.002, 814.729 492.500, 811.590 495.095 C 793.219 510.281, 788.478 527.622, 798.086 544.500 C 801.657 550.775, 811.092 559.997, 817 562.990 C 819.475 564.243, 821.784 565.711, 822.132 566.252 C 822.479 566.792, 824.253 567.408, 826.074 567.620 C 827.896 567.832, 829.643 568.423, 829.959 568.933 C 830.274 569.443, 833.674 570.632, 837.516 571.576 C 841.357 572.520, 844.979 573.662, 845.564 574.114 C 848.288 576.218, 882 578.099, 882 576.147 C 882 575.317, 895.036 573.686, 899.938 573.901 C 901.279 573.960, 902.629 573.666, 902.938 573.247 C 903.247 572.828, 907.438 571.223, 912.250 569.681 C 917.063 568.138, 921 566.544, 921 566.137 C 921 565.731, 923.025 564.415, 925.500 563.212 L 930 561.026 930 569.013 L 930 577 957.541 577 L 985.083 577 984.791 535.250 L 984.500 493.500 980.915 486 C 976.882 477.564, 966.459 466.017, 959.250 462 C 956.913 460.697, 955 459.332, 955 458.966 C 955 458.600, 951.962 457.023, 948.250 455.462 C 944.538 453.900, 941.259 452.275, 940.965 451.850 C 940.188 450.729, 922.988 446.265, 916.249 445.437 C 913.087 445.048, 910.179 444.228, 909.786 443.615 C 908.868 442.183, 850.069 442.298, 849.131 443.732 C 848.784 444.263, 844.788 444.976, 840.250 445.317 L 832 445.937 832 439.469 L 832 433 1037 433 L 1242 433 1242 438 C 1242 442.667, 1241.833 443, 1239.500 443 C 1238.125 443, 1237 443.389, 1237 443.864 C 1237 444.339, 1234.962 445.007, 1232.472 445.349 C 1227.518 446.028, 1212.839 450.707, 1212.015 451.870 C 1211.732 452.269, 1209.437 453.787, 1206.915 455.243 C 1201.380 458.440, 1197.003 462.019, 1191.373 467.952 L 1187.148 472.405 1185.107 469.952 C 1183.985 468.604, 1183.052 467.172, 1183.033 466.771 C 1182.965 465.267, 1171.926 455.212, 1169.023 454.009 C 1167.360 453.321, 1166 452.382, 1166 451.922 C 1166 450.838, 1151.950 446.408, 1145.500 445.458 C 1142.750 445.054, 1140.193 444.245, 1139.818 443.662 C 1138.853 442.162, 1104.175 442.114, 1103.214 443.611 C 1102.821 444.222, 1100.475 445.025, 1098 445.395 C 1092.991 446.144, 1079.989 450.485, 1079.083 451.712 C 1078.762 452.145, 1076.136 453.764, 1073.246 455.310 C 1070.357 456.855, 1066.532 459.455, 1064.746 461.088 L 1061.500 464.056 1061.217 452.971 C 1060.937 442.038, 1060.903 441.896, 1058.717 442.578 C 1057.498 442.958, 1056.275 443.612, 1056 444.031 C 1055.725 444.449, 1050.775 446.252, 1045 448.037 C 1039.225 449.822, 1034.275 451.610, 1034 452.009 C 1033.725 452.409, 1029.450 454.029, 1024.500 455.610 C 1019.550 457.191, 1015.275 458.776, 1015 459.132 C 1014.725 459.488, 1012.587 460.350, 1010.250 461.048 L 1006 462.317 1006 519.658 L 1006 577 1033.500 577 L 1061 577 1061 539.314 C 1061 497.538, 1061.315 494.774, 1067.578 481.500 C 1071.010 474.226, 1079.998 463.770, 1083.876 462.539 C 1085.044 462.169, 1086 461.488, 1086 461.027 C 1086 459.271, 1095.586 457, 1102.997 457 C 1110.527 457, 1121 459.279, 1121 460.917 C 1121 461.379, 1122.336 462.311, 1123.968 462.987 C 1127.516 464.457, 1133.147 471.073, 1135.510 476.550 C 1143.502 495.073, 1142.542 518.398, 1132.026 561.208 C 1130.365 567.969, 1129.005 574.295, 1129.003 575.266 C 1129 576.917, 1130.766 577.015, 1156.188 576.766 L 1183.375 576.500 1186.186 565.500 C 1190.598 548.234, 1193.840 528.297, 1194.507 514.325 C 1195.271 498.342, 1197.136 489.254, 1201.277 481.346 C 1205.208 473.841, 1213.173 464.585, 1217.102 462.958 C 1218.696 462.297, 1220 461.404, 1220 460.973 C 1220 459.362, 1229.589 457, 1236.129 457 C 1243.843 457, 1252.440 458.599, 1254.265 460.373 C 1254.944 461.034, 1257.082 462.542, 1259.015 463.724 C 1265.227 467.521, 1270.719 476.802, 1273.086 487.500 C 1275.066 496.449, 1274.573 518.126, 1272.063 532.500 C 1270.380 542.135, 1264.948 566.059, 1262.353 575.266 C 1261.884 576.928, 1263.488 577.016, 1289.592 576.766 L 1317.330 576.500 1319.188 569 C 1322.148 557.052, 1325.769 539.200, 1327.052 530.236 C 1328.600 519.412, 1327.770 491.180, 1325.721 485 C 1321.433 472.064, 1313.589 460.872, 1305 455.435 C 1302.525 453.868, 1300.268 452.262, 1299.985 451.865 C 1299.092 450.613, 1284.723 446.157, 1279.250 445.435 C 1276.362 445.054, 1274 444.350, 1274 443.871 C 1274 443.392, 1271.300 443, 1268 443 L 1262 443 1262 438 L 1262 433 1304.500 433 L 1347 433 1347 425.500 L 1347 418 1026.745 418 L 706.490 418 704.285 423.750 M 452.500 492.976 C 442.121 495.268, 439.473 496.799, 430.847 505.500 C 423.999 512.408, 421.730 517.684, 421.603 527 C 421.449 538.322, 425.652 546.006, 437.073 555.284 C 447.762 563.968, 475.377 564.247, 486.500 555.783 C 504.098 542.392, 507.912 523.990, 496.403 508.009 C 494.617 505.529, 491.883 502.752, 490.328 501.838 C 488.773 500.924, 486.413 499.232, 485.085 498.078 C 479.991 493.652, 462.116 490.853, 452.500 492.976 M 879.500 492.976 C 873.547 494.290, 867.373 496.661, 865.319 498.421 C 855.831 506.551, 853.720 508.870, 851.270 513.858 C 847.403 521.733, 847.342 532.031, 851.115 540.076 C 854.441 547.169, 863.724 556.358, 869.901 558.674 C 872.430 559.622, 874.804 560.843, 875.175 561.387 C 875.547 561.932, 879.856 562.568, 884.750 562.802 C 892.259 563.161, 894.967 562.825, 902.075 560.651 C 911.109 557.888, 914.070 556.045, 920.797 549 C 932.009 537.257, 933.013 521.274, 923.374 508.009 C 921.572 505.529, 918.388 502.376, 916.299 501.001 C 914.209 499.627, 911.917 497.951, 911.204 497.276 C 907.406 493.685, 888.132 491.070, 879.500 492.976" stroke="none" fill="#f4fbc3" fill-rule="evenodd"/></svg>