<svg xmlns="http://www.w3.org/2000/svg" width="1440" height="960" viewBox="0 0 1440 960" version="1.1"><path d="" stroke="none" fill="#fc4404" fill-rule="evenodd"/><path d="M 703.996 197.750 C 703.979 249.212, 695.406 294.949, 680.303 324.157 L 674.792 334.814 667.786 344.157 C 651.117 366.389, 652.771 365.891, 640.051 352.500 C 620.784 332.216, 610.691 321.975, 610.327 322.340 C 610.128 322.539, 610.641 325.356, 611.466 328.601 C 614.042 338.722, 616.919 357.426, 618.139 371.985 L 619.310 385.961 618.153 398.531 C 616.634 415.041, 614.810 423.677, 609.393 440 L 604.913 453.500 597.445 468.905 C 588.714 486.916, 588.726 487.085, 598.147 479.387 C 620.319 461.273, 635.571 445.722, 655.024 421.394 L 666.933 406.500 674.867 391 C 692.704 356.153, 701.820 330.144, 706.979 299.376 L 709.012 287.252 709.968 270.552 L 710.923 253.851 710.422 242.676 C 709.898 231.005, 707.381 198.587, 706.429 191.250 L 705.877 187 704.939 187 L 704 187 703.996 197.750 M 725.611 211.820 C 725.204 212.479, 725.112 213.801, 725.406 214.759 C 726.575 218.568, 730.019 255.917, 731.040 275.863 L 732.122 297.012 731.068 317.256 C 729.523 346.943, 725.267 379.955, 719.126 409.895 L 717.241 419.086 718.201 418.766 C 718.729 418.590, 725.193 402.568, 732.566 383.161 C 739.938 363.753, 746.326 347.240, 746.760 346.465 L 747.549 345.054 753.970 368.545 L 760.391 392.036 761.335 391.722 C 761.854 391.549, 766.587 384.698, 771.853 376.498 L 781.428 361.588 782.707 367.909 C 787.658 392.373, 798.004 417.884, 811.631 439.236 C 820.126 452.546, 850.345 491, 852.310 491 L 853.214 491 852.664 489.750 C 852.361 489.063, 848.775 481.075, 844.695 472 C 828.377 435.705, 819.809 408.076, 815.388 377.500 L 813.653 365.500 813.651 345 L 813.649 324.500 815.388 310 C 816.344 302.025, 817.937 290.775, 818.928 285 C 819.918 279.225, 820.528 274.147, 820.283 273.715 C 819.798 272.858, 807.204 284.226, 786.303 304.388 C 778.954 311.476, 772.776 317.101, 772.574 316.888 C 763.403 307.219, 743.052 263.052, 732.999 231 C 730.152 221.925, 727.492 213.627, 727.088 212.561 L 726.352 210.622 725.611 211.820 M 709 361.912 C 709 385.284, 698.544 406.909, 662.054 459 C 630.466 504.095, 617.315 524.972, 600.463 556.777 L 590.249 576.054 588.075 586.365 C 584.759 602.092, 583.112 613.209, 581.950 627.721 L 580.891 640.942 582.008 653.091 L 583.126 665.241 585.472 674.489 C 595.217 712.905, 622.571 736.641, 671.500 749.139 L 684.500 752.460 701.500 752.433 L 718.500 752.407 727.222 750.229 C 765.413 740.691, 799.361 714.680, 815.149 682.859 L 818.122 676.866 819.555 669.375 C 820.344 665.254, 821.666 656.410, 822.494 649.721 L 824 637.560 823.994 623.530 L 823.988 609.500 822.534 600 C 818.665 574.733, 809.343 551.606, 790.188 519.750 C 781.583 505.440, 781.491 505.364, 780.002 511.250 C 768.232 557.798, 752.907 592.435, 725.304 634.871 C 716.596 648.258, 716.667 648.839, 726.238 642.500 C 749.407 627.154, 761.664 615.351, 775.631 594.934 L 781.762 585.971 786.321 599.736 C 791.877 616.509, 793.910 625.119, 794.690 635.184 L 795.286 642.868 794.053 649.137 C 792.548 656.786, 789.886 662.618, 784.816 669.373 L 780.969 674.500 773.734 680.281 L 766.500 686.063 756.500 690.997 L 746.500 695.930 738 698.215 L 729.500 700.500 714 700.404 L 698.500 700.307 690.825 698.214 C 686.603 697.062, 679.652 694.664, 675.379 692.885 L 667.608 689.650 659.054 683.906 C 639.170 670.555, 624.909 650.970, 619.436 629.500 L 617.652 622.500 617.684 611.500 L 617.717 600.500 619.444 594 C 625.446 571.411, 644.563 532.533, 673.510 484.048 C 689.131 457.882, 692.035 452.342, 700.942 431.711 C 707.316 416.947, 710.708 405.336, 712.070 393.622 L 713.131 384.500 712.513 373.500 C 711.799 360.778, 711.205 357, 709.921 357 L 709 357 709 361.912 M 718 431.735 C 718 432.214, 722.149 435.957, 727.220 440.053 C 797.849 497.103, 825.327 541.916, 838.014 620.750 C 839.810 631.909, 840.790 629.875, 845.118 606 L 846.296 599.500 846.350 585.500 L 846.403 571.500 845.142 563.500 C 843.774 554.827, 839.301 537.095, 836.059 527.500 L 834.032 521.500 840.066 528 C 867.664 557.726, 879.237 577.484, 885.036 604.778 L 887.101 614.500 887.676 631.500 L 888.250 648.500 886.585 664.500 C 885.670 673.300, 884.536 682.190, 884.065 684.255 L 883.208 688.011 883.988 688.493 C 886.456 690.018, 897.491 648.405, 900.958 624.500 L 902.989 610.500 902.995 602.119 L 903 593.739 901.405 583.706 C 891.433 520.983, 826.148 463.444, 733.193 435.451 C 726.762 433.514, 720.712 431.690, 719.750 431.397 L 718 430.865 718 431.735 M 631.500 475.463 C 582.088 506.084, 554.515 530.484, 533.710 562 L 526.778 572.500 518.391 589.500 L 510.004 606.500 508.502 617.424 L 507 628.348 507 647.767 L 507 667.186 509.037 677.343 C 514.746 705.811, 528.103 730.413, 553.123 758.545 C 556.081 761.870, 559.990 766.305, 561.812 768.400 C 567.201 774.600, 566.445 772.555, 554.634 748.972 C 541.833 723.414, 534.535 705.589, 530.075 688.982 L 526.991 677.500 525.811 666.252 L 524.632 655.005 525.806 645.252 C 528.084 626.330, 536.387 607.108, 549.918 589.432 L 551.501 587.364 551.548 605.932 L 551.595 624.500 552.780 631.577 C 556.280 652.485, 576.989 697, 583.216 697 L 584.214 697 583.486 695.250 C 581.355 690.123, 576.932 673.996, 575.162 664.891 C 572.178 649.551, 571.870 646.342, 571.885 630.729 L 571.899 616.500 573.041 609 C 578.185 575.239, 593.792 539.725, 625.701 489.171 C 630.328 481.840, 633.976 475.478, 633.807 475.033 L 633.500 474.224 631.500 475.463" stroke="none" fill="#fc4c04" fill-rule="evenodd"/></svg>