<svg width="157" height="318" viewBox="0 0 157 318" fill="none" xmlns="http://www.w3.org/2000/svg">
<path d="M58.6285 318C17.8707 318 0 283.082 0 233.824V84.1765C0 34.9176 35.1144 0 78.3803 0C121.646 0 156.761 34.9176 156.761 84.1765V121.588H100.327V84.1765C100.327 59.547 93.4293 46.7647 78.3803 46.7647C63.3313 46.7647 56.4338 59.547 56.4338 84.1765V233.824C56.4338 258.765 63.6448 271.235 78.3803 271.235C91.8617 271.235 100.327 260.635 100.327 243.176V205.765H75.2451V159H156.761V314.882H100.327V301.476C89.667 311.765 75.5586 318 58.6285 318Z" fill="white"/>
</svg>
