<svg width="89" height="125" viewBox="0 0 89 125" fill="none" xmlns="http://www.w3.org/2000/svg">
<path d="M0.750907 89.847C-1.71831 105.963 1.77206 113.386 13.1572 124.92C1.51233 104.775 1.17318 96.1536 10.2772 84.9656C9.4377 96.1368 11.2239 101.259 17.1449 109.011C11.2641 92.8659 14.3243 82.3287 28.665 61.4629C13.3838 70.4319 6.87094 76.453 0.750907 89.847Z" fill="white"/>
<path d="M74.9712 94.3712C71.8691 74.9908 65.6266 65.896 47.5 52.4277C63.1527 56.4373 69.7093 60.2238 79.1805 68.5181C90.0218 79.447 91.8006 87.7013 84.9404 107.388C87.8533 89.5376 84.8556 81.8596 73.4204 71.23C76.9587 81.113 77.0934 86.1206 74.9712 94.3712Z" fill="white"/>
<path d="M18.6992 63.819C25.7769 51.0844 26.8449 43.4834 23.3516 29.1073L32.4347 38.1468C41.593 29.1482 44.0836 20.5583 44.6195 0C47.1492 19.73 45.7026 30.1346 35.7579 47.0056C29.6483 54.7276 25.8738 58.3274 18.6992 63.819Z" fill="white"/>
<path d="M49.2724 5.06055C51.7456 23.0098 51.1288 32.7952 47.5 49.8966L54.1464 33.2639L57.2479 43.9305L61.9002 37.0605C64.4676 49.4806 68.9738 55.2074 77.8512 65.083C69.2102 47.7206 66.7603 37.6625 70.5405 18.6198C66.1591 22.3891 63.8099 24.4894 59.9063 28.2018C54.4665 20.4164 52.3693 15.1249 49.2724 5.06055Z" fill="white"/>
<path d="M18.9197 83.3445C31.1046 58.9379 45.7262 49.8982 45.7262 36.1582C46.8505 43.5737 46.1544 47.6159 42.403 54.5989C42.5132 56.8282 32.1228 69.3956 25.7875 84.9716C19.4523 100.548 40.4112 116.55 57.2463 107.39C68.0155 101.53 65.6108 94.831 61.8986 84.9716C57.8541 91.2415 54.6363 94.1279 47.4984 98.3501C55.0318 87.868 58.3497 81.4379 61.8986 68.5198C70.7412 81.5912 72.9758 89.4915 70.0956 103.774C69.0385 109.017 57.8246 122.215 40.9875 120.768C19.498 117.514 13.1596 105.039 18.9197 83.3445Z" fill="white"/>
</svg>
