<svg width="43" height="43" viewBox="0 0 43 43" fill="none" xmlns="http://www.w3.org/2000/svg">
<circle cx="21.5" cy="21.5" r="20" stroke="#DFB385" stroke-width="3"/>
<path d="M25.9732 30.9989V12.9989C25.9727 12.8167 25.9224 12.6381 25.8279 12.4823C25.7333 12.3265 25.5981 12.1994 25.4367 12.1147C25.2753 12.0301 25.0939 11.9911 24.912 12.0018C24.73 12.0126 24.5545 12.0728 24.4042 12.1759L11.4042 21.1759C10.8652 21.5489 10.8652 22.4469 11.4042 22.8209L24.4042 31.8209C24.5542 31.9251 24.7298 31.9862 24.912 31.9976C25.0943 32.0089 25.2761 31.9702 25.4379 31.8854C25.5996 31.8007 25.735 31.6733 25.8294 31.517C25.9238 31.3607 25.9735 31.1815 25.9732 30.9989ZM13.7302 21.9989L23.9732 14.9069V29.0909L13.7302 21.9989Z" fill="#DFB385"/>
</svg>
