<svg width="213" height="113" viewBox="0 0 213 113" fill="none" xmlns="http://www.w3.org/2000/svg">
<path d="M-2.82048e-05 111.97V112.111V111.97ZM43.9429 0.141041C44.788 0.000199601 46.619 0.141041 47.8865 0.28189C53.0977 0.845263 57.4639 3.23959 60.9849 7.32403C61.6891 8.02825 61.83 8.30993 62.8159 9.71836C62.9567 9.8592 62.9567 10.1409 62.9567 10.1409V10.2817C63.2384 10.2817 64.2243 12.5352 64.6468 13.8028C65.0694 15.0704 65.4919 16.9013 65.6327 18.1689L65.7736 18.8731H65.3511L65.7736 19.1548V21.69C65.6327 23.521 65.6327 24.366 65.4919 24.5069C65.4919 24.6477 65.4919 24.6477 65.4919 24.6477C65.6327 24.6477 65.6327 24.7885 65.6327 25.3519V26.0561L65.4919 25.9153C65.4919 25.9153 65.2102 26.0561 65.0694 26.197C65.0694 26.3378 64.9285 26.3378 65.0694 26.3378C65.2102 26.197 65.3511 26.197 65.4919 26.197H65.7736L65.6327 29.8589C65.6327 31.8307 65.6327 33.5208 65.6327 33.5208C65.6327 33.5208 64.7877 33.5208 63.8018 33.5208C62.675 33.5208 62.1117 33.5208 62.1117 33.38C62.1117 33.38 62.1117 33.38 61.9708 33.38L61.6891 33.5208L61.5483 33.38H61.4075C61.2666 33.5208 57.6047 33.6616 51.971 33.5208C50.9851 33.5208 50.7034 33.5208 50.5626 33.2391C50.5626 33.2391 50.5626 29.9997 50.5626 26.0561V19.014L50.14 18.1689C49.7175 17.183 48.7316 16.1971 47.8865 15.7746C45.3514 14.507 42.2528 15.4929 40.8444 18.1689C40.281 19.2957 40.281 19.7182 40.281 25.0702L40.4219 30.1406L40.7036 31.1265C41.2669 33.38 42.112 35.2109 43.6613 37.1827C44.3655 38.1686 46.1964 40.4221 46.9006 41.1263C47.1823 41.408 54.3653 49.2952 55.2104 50.2811C56.478 51.6895 58.5906 54.2247 59.4357 55.4923L60.2807 56.619L60.1399 57.0416H60.2807C60.5624 57.0416 60.7032 57.1824 61.1258 57.7458C62.2525 59.5767 64.2243 63.9429 64.0835 64.0837C64.0835 64.0837 64.0835 64.2246 64.2243 64.3654C64.3652 64.6471 64.3652 64.9288 64.0835 65.0696H63.9426L64.506 65.2105L64.9285 66.6189C65.2102 67.8865 65.4919 69.7174 65.6327 71.2667C65.7736 72.816 65.7736 76.4779 65.6327 76.6187C65.6327 76.7596 65.6327 76.7596 65.6327 76.7596C65.7736 76.7596 65.7736 83.8017 65.6327 84.3651C65.6327 84.6468 65.6327 84.7876 65.6327 85.0693C65.6327 85.2101 65.4919 85.2101 65.3511 85.2101C65.2102 85.2101 65.2102 85.2101 65.2102 85.2101C65.4919 85.351 65.4919 85.6327 65.2102 86.7594C65.0694 87.6045 64.7877 88.4495 64.506 89.1537C64.506 89.4354 64.3652 89.7171 64.2243 89.858C63.8018 91.5481 61.1258 95.7734 60.7032 95.4917C60.7032 95.3508 60.7032 95.4917 60.7032 95.6325V95.9142L59.7174 96.9001C55.7738 100.562 51.6893 102.534 46.4781 102.815C43.3796 102.956 39.436 102.252 36.4783 100.703C34.929 99.9986 32.253 98.1677 32.3938 97.886C32.3938 97.886 32.3938 97.7452 32.253 97.886C32.1121 97.886 30.2812 96.055 29.4361 94.9283C28.0277 92.9565 26.6193 90.4213 26.7601 89.9988L26.901 89.7171H26.6193C26.4784 89.7171 26.4784 89.7171 26.3376 89.4354C26.3376 89.2946 26.3376 89.0129 26.3376 89.0129C26.1967 88.8721 26.3376 88.7312 26.3376 88.7312C26.4784 88.7312 26.4784 88.7312 26.4784 88.7312C26.4784 88.5904 26.3376 88.5904 26.3376 88.5904C26.1967 88.7312 26.0559 88.4495 25.9151 87.8862L25.6334 87.1819L25.7742 87.0411C26.0559 86.9003 26.0559 86.7594 25.7742 86.7594C25.6334 86.7594 25.6334 86.7594 25.6334 86.4777C25.3517 85.351 25.2108 84.6468 25.2108 83.6609V82.675L25.7742 82.1116L25.6334 81.9708C25.4925 81.9708 25.3517 81.9708 25.3517 82.1116L25.2108 82.3933V81.2665C25.2108 80.5623 25.3517 79.8581 25.3517 79.7173C25.3517 79.5764 25.3517 79.2947 25.3517 79.1539V78.8722L25.6334 79.2947L25.7742 79.1539C25.7742 79.0131 25.7742 78.8722 25.7742 78.8722C25.6334 78.8722 25.6334 78.7314 25.6334 78.7314C25.7742 78.7314 25.6334 78.5905 25.4925 78.5905C25.3517 78.5905 25.4925 78.4497 25.4925 78.5905C25.4925 78.7314 25.4925 78.7314 25.3517 78.7314C25.3517 78.7314 25.2108 78.5905 25.2108 78.4497C25.2108 78.3088 25.3517 78.168 25.3517 78.168C25.4925 78.168 25.4925 78.168 25.3517 78.0272C25.3517 78.0272 25.2108 76.4779 25.3517 73.0977V68.309L25.9151 67.8865H31.4079L31.1262 68.1682L31.2671 68.0273C31.4079 68.0273 32.8164 67.8865 35.6332 67.8865H39.8585L40.4219 68.4498V83.9426L40.7036 84.6468C41.4078 86.0552 42.8162 87.1819 44.3655 87.6045C44.6472 87.6045 44.9288 87.7453 44.9288 87.8862C45.0697 88.027 45.0697 88.027 45.0697 87.8862C45.2105 87.7453 45.3514 87.7453 45.6331 87.7453C45.9147 87.7453 46.4781 87.6045 46.7598 87.4636L47.464 87.3228L47.6049 87.4636C47.7457 87.6045 47.7457 87.6045 47.7457 87.4636C47.6049 87.3228 47.7457 87.1819 48.0274 87.0411C49.1541 86.4777 50.2809 85.0693 50.5626 83.8017C50.7034 82.9567 50.7034 73.0977 50.4217 71.6892C49.7175 67.3231 47.3232 62.957 42.6754 58.45C41.6895 57.3233 40.5627 56.3374 40.1402 55.9148C37.7459 53.6613 33.098 48.3093 33.2389 48.0276C33.2389 47.8868 33.2389 47.8868 33.098 47.8868C32.9572 47.8868 30.2812 44.2249 30.2812 43.9432C30.2812 43.9432 30.1403 43.6615 29.8587 43.3798C29.1544 42.2531 27.746 39.2954 27.0418 37.4644C26.3376 35.3518 25.3517 31.8307 25.4925 31.4082C25.6334 31.2673 25.4925 31.1265 25.4925 31.1265C25.3517 30.9856 25.2108 29.2955 25.2108 25.0702C25.2108 21.5492 25.2108 18.4506 25.3517 17.6056C25.4925 17.6056 25.4925 17.183 25.4925 16.9013C25.6334 16.4788 25.7742 16.0563 25.7742 15.7746C25.9151 15.3521 26.0559 14.9295 26.0559 14.6479C26.1967 14.3662 26.3376 14.0845 26.3376 14.0845C26.6193 14.0845 27.0418 13.5211 26.901 13.3803C26.901 13.3803 26.901 13.3803 26.901 13.5211C26.901 13.5211 26.7601 13.662 26.6193 13.662C26.3376 13.662 26.4784 13.3803 27.0418 12.1127C29.1544 7.74656 32.3938 4.36633 36.76 2.11284C38.8726 1.12694 41.2669 0.422731 43.9429 0.141041ZM56.1963 12.2535C56.3371 12.1127 56.3371 11.9718 56.3371 11.9718C56.3371 11.9718 56.1963 11.9718 56.0554 12.1127C55.7738 12.2535 55.9146 12.3944 56.1963 12.2535ZM27.6052 15.7746C27.746 15.6338 27.746 15.6338 27.746 15.6338C27.6052 15.6338 27.6052 15.6338 27.6052 15.7746C27.6052 15.7746 27.4643 15.7746 27.3235 15.7746C27.3235 15.7746 27.1826 15.7746 27.3235 15.9154C27.3235 16.1971 27.4643 16.0563 27.6052 15.7746ZM27.0418 26.6195C27.0418 26.6195 26.901 26.6195 26.7601 26.4787C26.6193 26.4787 26.6193 26.6195 26.6193 26.7603L26.7601 26.9012C26.7601 27.042 26.7601 26.9012 26.901 26.9012C27.0418 26.7603 27.0418 26.6195 27.0418 26.6195ZM32.9572 28.0279C33.098 28.0279 32.9572 28.0279 32.6755 28.0279C32.5347 28.0279 32.3938 28.0279 32.5347 28.0279C32.5347 28.1688 32.8164 28.1688 32.9572 28.0279ZM37.8867 34.6475C37.4642 34.5067 37.0416 34.5067 37.0416 34.7884C37.0416 34.9292 37.0416 35.0701 36.9008 35.2109V35.4926L37.3233 35.0701V35.3518C37.3233 35.4926 37.3233 35.6334 37.4642 35.6334C37.4642 35.6334 37.4642 35.6334 37.4642 35.7743C37.4642 35.7743 37.4642 35.9151 37.605 35.9151L37.7459 36.056V35.7743C37.7459 35.6334 37.605 35.4926 37.605 35.4926C37.4642 35.4926 37.4642 35.4926 37.4642 35.3518C37.4642 35.3518 37.4642 35.2109 37.605 35.2109H37.7459L37.605 35.0701C37.3233 34.9292 37.3233 34.7884 37.605 34.7884C37.7459 34.7884 37.8867 34.7884 37.8867 34.9292C37.8867 34.9292 37.8867 35.0701 38.0275 34.9292C38.0275 34.9292 38.0275 34.7884 37.8867 34.6475ZM37.1825 35.7743C37.0416 35.4926 36.9008 35.4926 36.6191 35.7743L36.3374 36.056L36.6191 36.4785L37.0416 36.3377C37.4642 36.1968 37.4642 35.9151 37.0416 36.056C36.9008 36.056 36.76 36.056 36.76 35.9151C36.76 35.9151 36.9008 35.9151 37.0416 35.9151C37.1825 35.9151 37.1825 35.9151 37.1825 35.7743ZM36.6191 37.7461C36.6191 37.6052 36.6191 37.6052 36.4783 37.6052C36.3374 37.6052 36.1966 37.6052 36.1966 37.7461C36.3374 37.8869 36.4783 37.8869 36.6191 37.7461ZM44.5063 41.1263C44.5063 41.1263 44.5063 40.9855 44.3655 40.8446C44.2246 40.8446 44.0838 40.7038 44.0838 40.8446C44.0838 40.9855 44.3655 41.2672 44.5063 41.1263ZM33.6614 45.3516C33.6614 45.2108 32.9572 45.2108 32.8164 45.3516C32.8164 45.3516 32.9572 45.4924 33.098 45.4924C33.2389 45.4924 33.3797 45.4924 33.5206 45.4924C33.5206 45.4924 33.5206 45.3516 33.6614 45.3516ZM30.422 69.5766C30.422 69.4357 30.2812 69.2949 29.9995 69.4357C29.7178 69.5766 29.8587 69.7174 30.1403 69.7174C30.2812 69.7174 30.422 69.5766 30.422 69.5766ZM62.5342 71.5484C62.675 71.2667 62.5342 71.2667 62.2525 71.4075C62.1117 71.6892 61.9708 71.9709 62.1117 72.1118C62.2525 72.1118 62.2525 72.1118 62.2525 71.9709C62.2525 71.8301 62.3934 71.5484 62.5342 71.5484ZM26.901 80.844C26.901 80.844 26.7601 80.7032 26.6193 80.5623C26.4784 80.4215 26.3376 80.4215 26.3376 80.4215C26.3376 80.5623 26.4784 80.7032 26.6193 80.844C26.7601 80.9849 26.901 80.9849 26.901 80.844ZM61.83 80.7032C61.83 80.4215 61.6891 80.5623 61.4075 80.844C61.2666 80.9849 61.2666 81.1257 61.4075 81.1257C61.5483 81.1257 61.5483 81.1257 61.5483 80.9849C61.4075 80.9849 61.5483 80.844 61.5483 80.844C61.6891 80.844 61.83 80.7032 61.83 80.7032ZM35.9149 81.2665C36.0557 81.2665 36.0557 81.1257 35.9149 81.1257C35.7741 80.9849 35.4924 81.2665 35.6332 81.4074C35.7741 81.5482 35.9149 81.5482 35.9149 81.2665ZM25.6334 83.0975C25.6334 82.8158 25.6334 82.675 25.4925 82.675C25.4925 82.675 25.4925 82.8158 25.3517 83.0975C25.3517 83.3792 25.4925 83.52 25.4925 83.52C25.6334 83.52 25.6334 83.52 25.6334 83.0975ZM26.6193 83.2383C26.901 83.0975 26.7601 82.9567 26.3376 83.0975H25.9151L26.1967 83.2383C26.3376 83.2383 26.4784 83.2383 26.6193 83.2383ZM26.1967 83.52C26.1967 83.3792 26.1967 83.3792 26.0559 83.3792C25.9151 83.3792 25.9151 83.3792 25.9151 83.52C25.9151 83.8017 26.0559 83.8017 26.1967 83.52ZM26.901 83.52C26.7601 83.2383 26.4784 83.2383 26.4784 83.52C26.3376 83.52 26.4784 83.52 26.4784 83.52C26.6193 83.52 26.7601 83.6609 26.7601 83.6609C26.7601 83.8017 26.7601 83.8017 26.901 83.8017C27.1826 83.8017 27.1826 83.6609 26.901 83.52ZM26.0559 84.0834C25.9151 84.2242 25.7742 84.0834 25.7742 84.0834C25.6334 83.9426 25.6334 83.9426 25.6334 84.0834C25.3517 84.2242 25.4925 84.3651 25.9151 84.3651C26.1967 84.3651 26.3376 84.2242 26.3376 84.2242C26.1967 84.0834 26.0559 84.0834 26.0559 84.0834ZM26.901 84.5059C26.901 84.3651 26.7601 84.3651 26.7601 84.3651C26.7601 84.3651 26.6193 84.3651 26.6193 84.5059L26.3376 84.6468L26.4784 84.9285C26.6193 85.2101 26.901 85.2101 26.901 85.0693C26.901 84.9285 26.901 84.9285 27.0418 84.9285C27.1826 84.7876 27.1826 84.7876 26.901 84.7876C26.7601 84.7876 26.6193 84.7876 26.6193 84.6468C26.6193 84.6468 26.6193 84.5059 26.7601 84.6468C26.901 84.6468 26.901 84.6468 26.901 84.5059ZM25.7742 84.5059C25.6334 84.3651 25.4925 84.3651 25.6334 84.6468C25.6334 84.6468 25.7742 84.7876 25.6334 84.7876C25.6334 84.7876 25.4925 84.9285 25.4925 85.0693C25.4925 85.2101 25.6334 85.2101 25.6334 85.2101C25.6334 85.2101 25.7742 85.2101 25.7742 85.0693C25.7742 84.9285 25.7742 84.7876 25.9151 84.7876C25.9151 84.6468 25.9151 84.6468 25.7742 84.5059ZM28.0277 84.9285C28.0277 84.9285 28.0277 84.7876 27.8869 84.7876L27.746 84.9285C27.746 85.0693 27.8869 85.2101 27.8869 85.0693C28.0277 85.0693 28.0277 85.0693 28.0277 84.9285ZM35.4924 85.0693C35.4924 84.9285 35.3515 84.9285 35.3515 84.9285C35.2107 84.9285 35.0698 85.2101 35.0698 85.2101C35.2107 85.351 35.4924 85.2101 35.4924 85.0693ZM26.1967 86.196C26.3376 86.0552 26.3376 85.9144 26.1967 85.7735C26.1967 85.6327 26.0559 85.6327 26.0559 85.6327C26.0559 85.6327 26.0559 85.7735 26.0559 85.9144C26.0559 86.0552 25.9151 86.3369 25.9151 86.3369C25.9151 86.4777 25.9151 86.6186 25.9151 86.6186C26.0559 86.6186 26.0559 86.4777 26.0559 86.3369C26.0559 86.196 26.1967 86.196 26.1967 86.196ZM37.605 86.4777L37.7459 86.3369H37.605C37.3233 86.196 37.1825 86.3369 37.1825 86.4777C37.1825 86.6186 37.3233 86.6186 37.605 86.4777ZM37.4642 87.3228C37.4642 87.4636 37.3233 87.4636 37.1825 87.3228C37.0416 87.1819 37.0416 87.1819 37.0416 87.3228C37.0416 87.3228 37.0416 87.4636 37.1825 87.4636C37.1825 87.6045 37.1825 87.7453 37.1825 87.8862C37.0416 88.1678 37.0416 88.1678 37.1825 88.1678H37.3233C37.3233 88.1678 37.4642 88.3087 37.605 88.3087L37.8867 88.4495V87.8862L38.4501 88.027H38.3092C38.1684 87.8862 37.8867 87.8862 37.605 87.8862L37.1825 88.027L37.3233 87.8862C37.4642 87.6045 37.605 87.1819 37.4642 87.3228ZM60.8441 88.7312C60.8441 88.5904 60.8441 88.4495 60.7032 88.4495C60.7032 88.4495 60.7032 88.4495 60.5624 88.4495C60.4216 88.5904 60.2807 88.7312 60.4216 88.7312L60.5624 88.8721C60.7032 88.8721 60.8441 88.8721 60.8441 88.7312ZM41.6895 102.111C41.6895 102.111 41.8303 101.97 41.6895 101.689V101.407L41.5486 101.689C41.4078 101.83 41.4078 101.97 41.5486 102.111H41.6895ZM44.7759 111.829V111.97V111.829ZM71.1135 2.25369C71.3952 2.11284 72.5219 2.11284 72.5219 2.25369C72.5219 2.39453 72.3811 2.39453 72.2403 2.39453C72.0994 2.39453 71.9586 2.39453 71.9586 2.39453C71.9586 2.53537 71.8177 2.53537 71.6769 2.53537C71.1135 2.39453 71.1135 2.67621 71.6769 2.67621C72.2403 2.81706 72.5219 2.81706 73.0853 2.53537C73.5078 2.39453 73.7895 2.25369 73.9304 2.25369C74.3529 2.11284 75.0571 2.11284 75.3388 2.39453C75.4796 2.39453 75.4796 2.39453 75.4796 2.39453C75.3388 2.25369 75.6205 2.11284 76.1839 2.11284C76.4655 2.11284 76.8881 2.25369 77.1698 2.25369C77.4514 2.25369 77.5923 2.25369 77.4514 2.25369C77.3106 2.39453 77.1698 2.39453 77.1698 2.53537C77.1698 2.67621 77.7331 2.53537 77.7331 2.25369C77.874 2.11284 78.0148 2.25369 78.0148 2.39453V2.67621L78.1557 2.39453C78.1557 2.11284 78.5782 1.972 78.719 2.25369C78.719 2.25369 78.8599 2.25369 79.1416 2.25369C79.4232 2.11284 80.9725 2.11284 81.1134 2.25369C81.2542 2.25369 81.5359 2.25369 81.8176 2.25369C82.2401 2.11284 82.3809 2.11284 82.6626 2.25369C82.8035 2.25369 82.9443 2.25369 82.9443 2.25369C82.9443 2.11284 83.0852 2.11284 83.226 2.11284C83.3668 2.11284 83.3668 2.11284 83.3668 2.39453C83.226 2.53537 83.3668 2.53537 83.3668 2.53537C83.5077 2.53537 83.6485 2.67621 83.6485 2.67621C83.7894 2.81706 83.7894 2.81706 83.6485 2.53537C83.6485 2.39453 83.6485 2.25369 83.7894 2.25369C83.7894 2.25369 83.9302 2.25369 83.7894 2.25369C83.7894 2.39453 83.9302 2.39453 83.9302 2.53537C84.2119 2.53537 84.2119 2.53537 84.3527 2.39453V2.11284H84.9161C85.1978 2.11284 85.4795 2.25369 85.6203 2.39453C85.902 2.53537 85.902 2.67621 85.7612 2.67621C85.6203 2.53537 85.7612 2.53537 85.7612 2.67621C85.7612 2.81706 86.6062 2.67621 86.7471 2.53537C86.7471 2.53537 86.8879 2.39453 87.0288 2.39453C87.0288 2.39453 87.1696 2.53537 87.0288 2.53537C87.0288 2.67621 87.0288 2.67621 87.3104 2.67621C87.5921 2.53537 87.5921 2.67621 87.1696 2.81706L86.7471 2.9579L87.1696 3.09874C87.4513 3.09874 87.5921 2.9579 87.5921 2.81706L87.733 2.67621V2.81706C87.733 2.9579 87.8738 3.09874 87.8738 2.9579C88.0147 2.9579 88.1555 2.9579 88.2963 3.09874C88.578 3.09874 88.578 3.09874 88.578 3.09874C88.578 2.9579 88.7189 2.9579 88.7189 3.09874C89.0006 3.23959 90.6907 3.23959 90.6907 3.09874C90.6907 3.09874 90.409 3.09874 89.9865 3.09874C89.5639 3.09874 89.4231 2.9579 89.5639 2.9579C89.7048 2.81706 89.7048 2.81706 89.7048 2.81706C89.1414 2.81706 88.578 2.67621 88.2963 2.53537C88.2963 2.39453 87.8738 2.25369 87.5921 2.25369C87.4513 2.25369 87.1696 2.25369 87.3104 2.25369C87.3104 2.11284 89.9865 2.11284 93.085 2.11284H98.7187L98.5779 2.25369C98.5779 2.53537 98.7187 2.53537 98.8596 2.25369L99.0004 2.11284H103.085C105.197 2.11284 107.169 2.11284 107.31 2.11284C107.451 2.25369 107.451 2.25369 107.451 2.39453C107.451 2.53537 107.451 2.53537 107.592 2.53537C107.592 2.53537 107.592 4.9297 107.592 9.8592V17.3239H102.381C98.5779 17.3239 97.0286 17.3239 96.8878 17.4647L96.7469 17.6056V29.4364H96.4652L96.7469 29.5772V64.9288C96.7469 84.3651 96.7469 100.28 96.6061 100.28C96.6061 100.421 81.9584 100.421 81.8176 100.28C81.8176 100.28 81.8176 81.6891 81.8176 58.8725C81.8176 29.4364 81.6767 17.6056 81.6767 17.4647L81.5359 17.3239L71.1135 17.183V9.8592C71.1135 4.78886 71.1135 2.39453 71.1135 2.25369ZM98.2962 2.25369C98.2962 2.11284 98.0145 2.25369 97.7328 2.39453C97.592 2.53537 97.4511 2.53537 97.3103 2.53537H97.1694C97.1694 2.67621 97.3103 2.67621 97.3103 2.67621C97.4511 2.67621 97.4511 2.81706 97.592 2.9579C97.592 3.09874 97.7328 3.23959 97.7328 3.23959C97.8737 3.23959 97.8737 3.23959 97.7328 2.9579L97.592 2.67621H97.8737C98.1553 2.67621 98.2962 2.53537 98.2962 2.25369ZM99.4229 2.67621C99.4229 2.53537 99.5638 2.39453 99.5638 2.39453C99.4229 2.11284 98.8596 2.39453 98.8596 2.67621L99.0004 2.81706L99.1412 2.53537V2.67621V2.81706L99.4229 2.67621ZM80.1275 2.53537C80.1275 2.53537 79.9866 2.39453 79.7049 2.39453C79.4232 2.39453 79.4232 2.39453 79.4232 2.53537C79.4232 2.67621 79.4232 2.67621 79.7049 2.67621C79.8458 2.53537 80.1275 2.53537 80.1275 2.53537ZM81.9584 2.53537C81.395 2.53537 80.8317 2.39453 80.6908 2.39453L80.4091 2.25369V2.67621H80.8317C81.1134 2.67621 81.2542 2.67621 81.395 2.81706C81.395 2.9579 81.395 2.9579 81.395 2.81706C81.395 2.81706 81.5359 2.81706 81.5359 2.9579C81.6767 3.09874 81.8176 3.09874 81.8176 3.09874C81.9584 3.09874 81.9584 2.9579 81.8176 2.9579C81.5359 2.81706 81.6767 2.67621 82.3809 2.67621C83.5077 2.67621 83.0852 2.39453 81.9584 2.53537ZM91.3949 2.67621C91.3949 2.67621 91.3949 2.53537 91.254 2.53537C91.1132 2.53537 90.6907 2.81706 90.8315 2.81706C90.8315 2.9579 91.3949 2.81706 91.3949 2.67621ZM95.9019 2.81706C96.0427 2.81706 95.9019 2.67621 95.4793 2.67621C95.3385 2.67621 95.0568 2.67621 95.0568 2.67621C95.0568 2.81706 95.761 2.9579 95.9019 2.81706ZM96.7469 2.67621L96.8878 2.53537H96.6061C96.4652 2.53537 96.3244 2.67621 96.3244 2.67621C96.3244 2.81706 96.4652 2.81706 96.7469 2.67621ZM78.8599 2.81706C79.1416 2.81706 79.2824 2.67621 79.0007 2.67621C78.5782 2.67621 78.1557 2.81706 78.0148 3.09874V3.23959L78.1557 3.09874C78.2965 2.9579 78.5782 2.9579 78.8599 2.81706ZM90.409 2.81706C90.409 2.81706 90.2681 2.67621 90.1273 2.67621C89.9865 2.67621 89.9865 2.81706 89.9865 2.81706C89.9865 2.81706 89.9865 2.9579 90.1273 2.9579C90.2681 2.9579 90.2681 2.81706 90.409 2.81706ZM71.6769 3.09874C71.6769 2.9579 71.3952 2.9579 71.2544 3.09874V3.23959C71.3952 3.38043 71.6769 3.23959 71.6769 3.09874ZM92.3808 3.09874L92.6625 2.9579H91.6766L91.9583 3.09874C92.0991 3.09874 92.2399 3.09874 92.3808 3.09874ZM75.3388 3.23959C75.3388 3.09874 75.0571 3.09874 74.7754 3.09874C74.4937 3.09874 74.2121 3.09874 74.2121 3.09874C74.2121 3.23959 74.4937 3.23959 74.7754 3.23959C75.0571 3.23959 75.3388 3.23959 75.3388 3.23959ZM79.2824 3.23959C79.2824 2.9579 79.0007 2.9579 78.719 3.23959H78.5782H78.8599C79.1416 3.23959 79.2824 3.23959 79.2824 3.23959ZM86.0429 3.23959C86.0429 3.09874 86.0429 3.09874 85.902 3.09874H85.6203L85.7612 3.23959C86.0429 3.52128 87.0288 3.66212 87.4513 3.52128H87.733L87.3104 3.38043C87.1696 3.38043 86.8879 3.23959 86.8879 3.38043C86.7471 3.38043 86.7471 3.38043 86.7471 3.23959C86.7471 3.23959 86.7471 3.23959 86.3245 3.23959C86.0429 3.23959 85.902 3.23959 86.0429 3.23959ZM96.3244 3.23959C96.1835 3.09874 95.4793 3.09874 95.4793 3.23959C95.4793 3.23959 95.761 3.23959 96.0427 3.23959C96.1835 3.23959 96.3244 3.23959 96.3244 3.23959ZM88.2963 3.38043C88.2963 3.23959 88.0147 3.09874 88.0147 3.23959C88.0147 3.38043 87.8738 3.38043 87.8738 3.38043C87.733 3.23959 87.733 3.23959 87.8738 3.38043L88.0147 3.66212L88.1555 3.38043H88.2963C88.2963 3.52128 88.2963 3.52128 88.2963 3.38043ZM77.4514 3.52128C77.5923 3.52128 77.5923 3.38043 77.5923 3.38043C77.4514 3.38043 77.4514 3.38043 77.4514 3.38043C77.3106 3.52128 77.1698 3.52128 77.1698 3.52128C77.0289 3.38043 76.8881 3.52128 76.8881 3.52128C76.8881 3.66212 76.8881 3.66212 77.1698 3.66212C77.3106 3.66212 77.4514 3.66212 77.4514 3.52128ZM79.7049 3.38043C79.7049 3.23959 79.7049 3.23959 79.4232 3.38043C79.1416 3.52128 79.2824 3.66212 79.5641 3.52128C79.7049 3.52128 79.7049 3.52128 79.7049 3.38043ZM82.5218 3.52128L82.6626 3.38043H82.2401C81.6767 3.38043 81.5359 3.52128 82.0993 3.52128C82.2401 3.66212 82.5218 3.52128 82.5218 3.52128ZM89.7048 3.38043C89.2822 3.23959 89.0006 3.23959 89.0006 3.38043C89.0006 3.52128 89.1414 3.52128 89.4231 3.52128H89.9865L89.7048 3.38043ZM102.944 3.52128C102.944 3.38043 102.521 3.38043 102.381 3.38043C102.24 3.52128 102.24 3.52128 102.24 3.52128C102.662 3.66212 102.944 3.66212 102.944 3.52128ZM73.6487 3.66212C73.367 3.38043 73.0853 3.38043 73.2262 3.66212L73.367 3.80296C73.367 3.9438 73.5078 3.9438 73.6487 3.9438C73.7895 3.9438 73.9304 3.80296 73.9304 3.66212C73.9304 3.52128 73.9304 3.52128 73.7895 3.66212V3.80296L73.6487 3.66212ZM80.8317 3.52128L81.1134 3.38043H80.8317C80.55 3.38043 80.55 3.52128 80.6908 3.80296C80.9725 3.9438 81.1134 3.9438 81.1134 3.80296C81.1134 3.66212 80.9725 3.66212 80.8317 3.66212H80.6908L80.8317 3.52128ZM83.9302 3.66212C83.9302 3.52128 83.7894 3.52128 83.5077 3.52128C83.226 3.52128 83.0852 3.52128 83.0852 3.66212C83.0852 3.66212 83.9302 3.80296 83.9302 3.66212ZM91.3949 3.66212L91.6766 3.52128H91.3949C91.254 3.52128 91.1132 3.66212 90.9724 3.66212L90.6907 3.80296H90.9724C91.1132 3.80296 91.3949 3.80296 91.3949 3.66212ZM96.0427 3.66212L95.9019 3.52128C95.761 3.52128 95.6202 3.66212 95.6202 3.66212C95.761 3.80296 95.761 3.80296 95.9019 3.80296C95.9019 3.80296 95.9019 3.80296 96.0427 3.66212ZM99.8455 3.66212C99.8455 3.52128 99.7046 3.52128 99.4229 3.66212L99.2821 3.80296H99.5638C99.7046 3.80296 99.8455 3.80296 99.8455 3.66212ZM74.7754 3.80296C74.7754 3.66212 74.6346 3.66212 74.4937 3.66212C74.3529 3.66212 74.0712 3.66212 74.0712 3.80296C74.0712 3.9438 74.6346 3.80296 74.7754 3.80296ZM80.55 4.08464C80.4091 4.08464 80.1275 4.08464 79.9866 3.9438L79.8458 3.80296V3.9438C79.8458 4.08464 79.9866 4.22549 80.1275 4.22549H79.9866C79.8458 4.36633 79.7049 4.36633 79.7049 4.22549C79.5641 4.08464 79.2824 4.08464 79.4232 4.22549C79.4232 4.36633 79.4232 4.36633 79.2824 4.36633C79.1416 4.36633 79.0007 4.50717 79.0007 4.50717C79.0007 4.50717 79.4232 4.64801 79.7049 4.64801C80.2683 4.64801 80.4091 4.64801 80.4091 4.50717L80.1275 4.36633H80.4091C80.55 4.36633 80.6908 4.36633 80.6908 4.22549L80.55 4.08464ZM82.0993 3.9438C82.0993 3.80296 81.9584 3.80296 81.6767 3.80296H81.395L81.6767 3.9438C81.8176 3.9438 81.9584 3.9438 81.9584 4.08464C81.9584 4.22549 82.0993 4.08464 82.0993 3.9438ZM88.1555 3.9438C88.0147 3.80296 87.8738 3.80296 87.8738 3.80296L87.1696 3.9438H86.6062L86.8879 4.08464C87.3104 4.22549 88.2963 4.08464 88.1555 3.9438ZM76.4655 3.9438C76.1839 3.9438 76.1839 3.9438 76.3247 4.08464H76.4655L75.9022 4.22549H76.3247C76.7472 4.22549 76.8881 4.08464 76.4655 3.9438ZM90.409 4.08464C90.2681 3.9438 89.4231 3.9438 89.2822 4.08464C89.1414 4.08464 89.4231 4.08464 89.8456 4.08464C90.1273 4.08464 90.409 4.08464 90.409 4.08464ZM78.8599 4.50717C79.0007 4.36633 78.0148 4.50717 77.874 4.64801C77.874 4.64801 78.0148 4.64801 78.2965 4.64801C78.5782 4.64801 78.8599 4.50717 78.8599 4.50717ZM87.8738 4.50717C87.4513 4.36633 87.3104 4.36633 87.3104 4.50717C87.3104 4.64801 87.4513 4.64801 87.733 4.64801H88.1555L87.8738 4.50717ZM78.719 5.07054C78.719 4.9297 78.4373 4.9297 77.7331 4.9297C77.4514 5.07054 77.3106 5.07054 77.4514 5.07054C77.5923 5.21139 77.7331 5.21139 77.874 5.07054C78.0148 5.07054 78.2965 5.07054 78.4373 5.07054C78.5782 5.07054 78.719 5.07054 78.719 5.07054ZM79.5641 5.07054C79.5641 4.9297 79.2824 4.9297 79.1416 4.9297H78.8599L79.0007 5.07054C79.2824 5.21139 79.5641 5.21139 79.5641 5.07054ZM80.9725 4.9297C80.9725 4.9297 80.8317 4.9297 80.55 4.9297C80.2683 4.9297 79.9866 4.9297 79.9866 4.9297C79.9866 5.07054 80.8317 5.07054 80.9725 4.9297ZM74.4937 5.77476C74.3529 5.63392 74.2121 5.63392 74.0712 5.63392C73.9304 5.63392 73.7895 5.63392 73.7895 5.77476C73.9304 5.77476 74.0712 5.9156 74.2121 5.9156C74.3529 5.9156 74.4937 5.77476 74.4937 5.77476ZM78.4373 5.63392C78.5782 5.63392 78.4373 5.63392 78.1557 5.63392C77.7331 5.63392 77.5923 5.63392 77.874 5.63392C78.0148 5.77476 78.2965 5.77476 78.4373 5.63392ZM80.1275 6.05645C80.1275 6.05645 79.9866 5.9156 79.8458 5.9156C79.7049 5.9156 79.5641 6.05645 79.5641 6.19729V6.33813L79.8458 6.19729C79.9866 6.05645 80.1275 6.05645 80.1275 6.05645ZM77.7331 6.76066L78.1557 6.61981H77.7331C77.1698 6.61981 76.8881 6.76066 76.8881 6.9015C76.8881 7.04234 77.1698 6.9015 77.7331 6.76066ZM78.719 6.76066C78.719 6.61981 78.719 6.61981 78.5782 6.61981C78.4373 6.61981 78.2965 6.61981 78.1557 6.76066C78.1557 6.76066 78.2965 6.76066 78.4373 6.76066C78.5782 6.76066 78.719 6.76066 78.719 6.76066ZM72.9445 14.6479C72.8036 14.507 72.5219 14.3662 72.5219 14.507C72.5219 14.6479 72.5219 14.6479 72.6628 14.7887C72.8036 14.7887 72.9445 14.7887 72.9445 14.6479ZM90.9724 14.7887C90.8315 14.6479 90.5498 14.6479 90.5498 14.7887C90.5498 14.9295 90.8315 15.0704 90.9724 14.9295C90.9724 14.9295 90.9724 14.9295 90.9724 14.7887ZM94.0709 15.6338V15.4929H93.9301C93.7892 15.6338 93.6484 15.6338 93.5075 15.6338C93.3667 15.6338 93.3667 15.6338 93.3667 15.7746V15.9154H93.6484C93.7892 15.7746 93.9301 15.7746 94.0709 15.6338ZM97.1694 16.4788C97.1694 16.338 96.7469 16.338 96.6061 16.6197C96.3244 16.7605 96.4652 17.6056 96.6061 17.4647C96.7469 17.4647 96.7469 17.183 96.7469 17.0422V16.6197H97.0286C97.1694 16.6197 97.1694 16.6197 97.1694 16.4788ZM92.6625 17.183C92.6625 17.0422 92.6625 16.9013 92.6625 16.9013C92.5216 16.7605 92.5216 16.7605 92.5216 17.0422V17.4647L92.6625 17.183ZM93.2258 16.9013C93.085 16.7605 92.8033 16.7605 92.8033 16.9013C92.8033 17.0422 92.9442 17.183 93.085 17.0422H93.3667L93.2258 16.9013ZM93.7892 17.4647C93.7892 17.183 93.3667 17.183 93.085 17.3239L92.9442 17.4647H93.085C93.2258 17.4647 93.3667 17.6056 93.3667 17.6056C93.3667 17.7464 93.7892 17.6056 93.7892 17.4647ZM94.916 18.3098C94.916 18.1689 94.916 18.0281 94.7751 17.8872C94.7751 17.8872 94.6343 18.0281 94.6343 18.1689C94.6343 18.4506 94.7751 18.5915 94.7751 18.5915C94.916 18.5915 94.916 18.4506 94.916 18.3098ZM87.1696 63.9429C87.3104 63.802 87.3104 63.6612 87.3104 63.6612C87.1696 63.6612 87.1696 63.6612 87.1696 63.802L87.0288 63.9429C86.8879 63.9429 86.7471 63.9429 86.7471 63.9429C86.7471 64.2246 87.0288 64.0837 87.1696 63.9429ZM88.8597 82.675C88.8597 82.3933 88.8597 82.3933 88.7189 82.3933C88.578 82.3933 88.4372 82.3933 88.4372 82.3933C88.4372 82.3933 88.578 82.5341 88.7189 82.675L88.8597 82.9567V82.675ZM76.9068 111.829V111.97V111.829ZM114.934 2.39453C115.075 2.11284 115.216 1.972 115.498 2.25369C115.639 2.25369 115.639 2.39453 115.639 2.25369C115.639 2.25369 118.315 2.11284 122.681 2.11284H129.723L129.864 2.25369C130.005 2.39453 130.005 2.9579 130.005 3.9438V5.35223L129.723 5.49308C129.159 5.49308 129.159 5.77476 129.582 5.77476H130.005V6.05645C130.005 6.33813 130.005 6.61981 130.005 6.61981C129.864 6.76066 129.864 6.9015 129.864 6.9015C130.005 7.04234 130.005 13.662 130.005 29.9997C130.005 42.5347 130.005 52.9571 130.005 53.098C130.005 53.2388 130.005 53.943 130.005 54.2247C130.005 54.2247 130.005 64.6471 130.005 77.1821C130.005 89.7171 130.005 100.139 130.005 100.139V100.421H122.54C118.455 100.421 114.934 100.28 114.934 100.28C114.794 100.139 114.794 10.9859 114.934 10.9859C115.216 11.1268 115.639 11.1268 115.639 10.9859C115.639 10.8451 115.639 10.8451 115.639 10.7043C115.639 10.7043 115.498 10.5634 115.357 10.4226L115.216 10.2817V10.5634C115.216 10.7043 115.216 10.8451 115.357 10.8451C115.357 10.9859 115.357 10.9859 115.357 10.9859C115.216 10.9859 115.075 10.8451 114.934 10.7043L114.794 10.5634L114.934 10.4226C115.075 10.4226 115.075 10.2817 114.934 10.2817C114.794 10.2817 114.794 10.2817 114.794 10.1409C114.794 10 114.794 10 114.934 10L115.216 10.1409L115.075 10C115.075 9.8592 115.075 9.71836 115.075 9.71836C115.357 9.71836 115.216 9.15499 115.075 9.15499C114.653 9.01414 114.794 8.73246 115.075 8.73246C115.216 8.73246 115.357 8.59161 115.357 8.59161C115.357 8.45077 115.357 8.45077 115.216 8.45077C115.075 8.45077 114.934 8.45077 114.934 8.30993C114.794 8.02825 114.794 6.9015 114.934 6.9015C114.934 6.9015 114.934 6.9015 114.934 6.61981C114.794 6.19729 114.794 6.19729 114.934 6.19729C114.934 6.19729 115.075 6.33813 115.075 6.47897C115.075 6.47897 115.075 6.61981 115.216 6.47897C115.216 6.47897 115.357 6.61981 115.498 6.61981C115.639 6.76066 115.779 6.76066 115.92 6.76066L116.061 6.61981L115.779 6.19729L115.498 6.33813C115.216 6.47897 115.216 6.33813 115.075 6.19729C115.075 6.19729 115.075 6.05645 115.075 5.9156C115.075 5.9156 115.216 5.9156 115.075 5.9156C114.934 5.9156 114.934 5.9156 114.934 5.77476L114.794 5.49308H115.075C115.216 5.49308 115.357 5.49308 115.216 5.35223C115.075 5.35223 115.075 5.21139 115.075 5.21139C115.357 5.07054 115.357 4.78886 115.075 4.9297C114.934 5.07054 114.794 4.50717 114.934 3.80296C114.934 3.52128 114.934 3.09874 114.934 2.9579C114.794 2.81706 114.794 2.53537 114.934 2.39453ZM115.216 2.67621C115.216 2.53537 115.075 2.39453 115.075 2.39453C114.934 2.39453 115.075 2.9579 115.216 3.09874L115.498 3.23959L115.357 3.09874C115.216 2.9579 115.216 2.81706 115.216 2.67621ZM116.202 2.81706C116.202 2.67621 116.202 2.53537 116.202 2.53537L116.061 2.67621C115.779 2.9579 115.779 3.09874 116.061 3.09874C116.202 3.09874 116.202 2.9579 116.202 2.81706ZM117.47 3.52128C117.47 3.52128 117.47 3.38043 117.329 3.38043C117.188 3.38043 116.906 4.08464 117.047 4.22549C117.047 4.36633 117.047 4.36633 116.906 4.36633H116.624V4.08464C116.765 3.9438 116.624 3.9438 116.624 3.9438C116.484 3.9438 116.484 3.9438 116.484 3.9438C116.624 4.08464 116.484 4.08464 116.343 4.22549C116.061 4.36633 116.061 4.36633 116.202 4.36633C116.202 4.36633 116.343 4.36633 116.484 4.50717C116.484 4.50717 116.624 4.64801 116.765 4.64801H117.188L117.329 4.22549C117.329 3.9438 117.47 3.66212 117.47 3.52128ZM116.061 4.64801C116.202 4.50717 115.92 4.50717 115.779 4.64801L115.639 4.9297H115.779C115.92 4.78886 116.061 4.78886 116.061 4.64801ZM118.455 4.64801C118.455 4.50717 118.315 4.50717 118.174 4.50717C117.751 4.50717 117.61 4.78886 117.892 4.9297C118.033 4.9297 118.033 4.9297 118.033 4.9297C117.892 4.78886 118.033 4.78886 118.174 4.78886C118.315 4.78886 118.315 4.78886 118.455 4.64801ZM117.047 5.49308C117.047 5.21139 117.047 5.07054 117.047 5.07054C116.906 5.07054 116.765 5.35223 116.765 5.63392C116.765 6.05645 116.906 5.9156 117.047 5.49308ZM115.779 5.77476C115.779 5.63392 115.639 5.49308 115.639 5.49308C115.498 5.49308 115.498 5.49308 115.639 5.63392C115.639 5.63392 115.639 5.77476 115.498 5.77476C115.216 5.9156 115.357 6.05645 115.779 6.19729C116.061 6.19729 116.202 6.33813 116.202 6.33813C116.202 6.47897 116.343 6.47897 116.343 6.47897C116.484 6.33813 116.202 5.9156 116.061 6.05645C115.92 6.05645 115.779 5.9156 115.779 5.77476ZM116.343 7.04234C116.484 6.61981 116.484 6.61981 115.92 6.9015C115.779 7.04234 115.639 7.18319 115.779 7.18319C115.779 7.32403 115.779 7.32403 115.92 7.18319C115.92 7.04234 116.202 7.04234 116.343 7.18319C116.343 7.32403 116.343 7.18319 116.343 7.04234ZM116.202 8.45077L116.484 8.16909L116.202 7.74656V8.02825C116.202 8.30993 116.061 8.45077 115.92 8.16909C115.92 7.8874 115.779 8.02825 115.779 8.45077L115.92 8.73246L116.202 8.45077ZM118.878 10.7043C118.878 10.7043 118.878 10.5634 118.737 10.5634C118.455 10.5634 118.315 10.7043 118.596 10.8451C118.737 11.1268 118.878 10.9859 118.878 10.7043ZM116.343 16.0563C116.343 15.9154 116.343 15.9154 116.343 15.9154C116.343 15.9154 116.202 16.0563 115.92 16.0563C115.498 16.0563 115.357 16.4788 115.779 16.6197C115.779 16.6197 115.92 16.6197 115.92 16.4788C115.779 16.338 115.92 16.1971 116.061 16.1971C116.202 16.1971 116.343 16.0563 116.343 16.0563ZM117.188 17.183C117.188 16.9013 117.047 16.7605 116.906 16.9013H116.765L116.906 17.183C117.047 17.4647 117.188 17.4647 117.188 17.183ZM116.343 17.183C116.343 17.0422 116.343 17.0422 116.202 16.9013C116.202 16.9013 116.061 17.0422 116.061 17.183C116.061 17.3239 115.92 17.3239 115.92 17.3239C115.779 17.3239 115.779 17.3239 115.92 17.4647C115.92 17.6056 116.061 17.7464 116.202 17.6056C116.202 17.6056 116.202 17.6056 116.061 17.4647V17.3239C116.202 17.3239 116.202 17.3239 116.343 17.183ZM118.878 17.4647C118.878 17.0422 118.878 16.9013 118.737 17.183C118.737 17.183 118.737 17.3239 118.737 17.4647L118.878 17.7464V17.4647ZM117.47 17.6056C117.61 17.4647 117.61 17.3239 117.47 17.3239C117.47 17.3239 117.329 17.3239 117.329 17.4647C117.329 17.6056 117.188 17.7464 117.188 17.8872C117.047 18.0281 117.188 18.1689 117.188 18.1689C117.329 18.1689 117.329 18.0281 117.329 17.8872C117.329 17.7464 117.329 17.6056 117.47 17.6056ZM118.878 18.5915C118.878 18.5915 118.878 18.5915 118.737 18.5915C118.596 18.5915 118.455 18.7323 118.455 18.7323C118.596 18.8731 118.455 18.8731 118.455 19.014C118.315 19.014 118.315 19.1548 118.315 19.1548C118.455 19.2957 118.878 18.7323 118.878 18.5915ZM118.033 19.1548C118.033 18.8731 117.47 19.014 117.329 19.2957C117.329 19.4365 117.47 19.4365 117.61 19.2957L117.892 19.1548V19.2957C117.892 19.4365 117.892 19.4365 117.892 19.4365C118.033 19.4365 118.033 19.2957 118.033 19.1548ZM117.751 52.8163C117.751 52.5346 117.47 52.2529 117.47 52.3938C117.329 52.3938 117.329 52.5346 117.47 52.5346C117.47 52.5346 117.61 52.5346 117.61 52.8163C117.751 52.9571 117.751 52.9571 117.751 52.8163ZM121.554 52.9571L121.413 52.8163C121.272 52.8163 121.131 52.9571 121.131 52.9571C121.131 53.098 121.272 53.098 121.413 53.098C121.413 53.098 121.554 53.098 121.554 52.9571ZM111.48 111.829V111.97V111.829ZM141.339 2.39453L141.48 2.11284H148.663C154.015 2.11284 155.987 2.25369 155.987 2.25369C156.128 2.39453 156.128 2.81706 156.128 3.38043C156.128 3.9438 156.128 6.47897 156.128 9.01414C156.128 12.2535 156.128 44.5065 156.128 46.4784C156.128 46.4784 156.128 48.3093 156.128 50.5628C156.128 52.6754 156.128 54.5064 156.128 54.5064C156.128 54.6472 156.128 54.6472 156.128 54.6472C156.268 54.6472 156.268 71.6892 156.128 73.8019C156.128 75.7737 156.268 83.8017 156.268 84.0834C156.409 84.5059 156.973 85.0693 157.395 85.2101C157.536 85.2101 160.916 85.2101 165.001 85.2101C168.944 85.2101 172.325 85.351 172.465 85.351C172.747 85.351 172.747 85.4918 172.747 85.6327C172.606 85.7735 172.747 85.9144 172.747 85.7735H172.888L173.029 91.4072C173.029 94.5058 172.888 97.0409 172.888 97.1818C172.888 97.4635 172.888 97.4635 172.888 97.4635C173.029 97.4635 172.888 100.139 172.747 100.28C172.747 100.28 167.818 100.421 157.113 100.421H141.48L141.198 99.9986V51.267V2.53537L141.339 2.39453ZM153.17 29.718C153.17 29.5772 153.17 29.5772 153.17 29.5772C153.029 29.5772 153.029 29.5772 153.029 29.718C153.029 29.9997 153.17 30.2814 153.452 30.2814C153.452 30.2814 153.452 30.1406 153.311 30.1406C153.17 29.9997 153.17 29.8589 153.17 29.718ZM145.846 35.3518C145.846 34.9292 145.846 34.6475 145.846 34.6475C145.705 34.6475 145.705 34.6475 145.564 34.7884C145.564 34.9292 145.424 35.0701 145.564 35.3518C145.705 36.056 145.846 36.056 145.846 35.3518ZM145.987 36.901L145.846 36.7602C145.705 36.7602 145.705 37.7461 145.987 38.0278C146.128 38.0278 146.128 38.0278 145.987 37.6052C145.987 37.3236 145.987 37.0419 145.987 36.901ZM146.269 39.7179C146.269 39.4362 146.128 39.1545 146.128 39.0137L145.987 38.8728V39.4362C146.128 40.2813 146.269 40.4221 146.269 39.7179ZM146.832 40.9855C146.832 40.9855 146.691 40.9855 146.409 40.8446H146.128L146.409 40.9855C146.55 41.1263 146.691 41.2672 146.691 41.1263C146.832 41.1263 146.832 40.9855 146.832 40.9855ZM147.395 48.3093C147.395 48.1685 147.254 48.0276 147.254 47.8868V47.6051V47.8868C147.114 48.1685 147.254 48.4502 147.395 48.4502C147.536 48.4502 147.536 48.4502 147.395 48.3093ZM147.677 48.7318C147.677 48.591 147.536 48.591 147.536 48.591C147.395 48.591 147.254 48.591 147.254 48.7318C147.395 48.7318 147.395 48.8727 147.536 48.8727L147.677 48.7318ZM148.945 49.1544C148.804 49.0135 148.663 48.8727 148.522 48.8727C148.381 48.8727 148.24 48.8727 148.381 48.8727C148.522 48.8727 148.663 49.0135 148.663 49.1544L148.804 49.2952L148.381 49.0135V49.2952C148.24 49.5769 148.381 49.5769 148.663 49.5769L148.945 49.4361V49.1544ZM148.945 50.2811C148.945 50.2811 148.804 50.1403 148.663 50.1403H148.522L148.663 50.2811C148.804 50.422 148.945 50.5628 149.085 50.422C149.085 50.422 149.085 50.2811 148.945 50.2811ZM148.945 50.7036C148.945 50.5628 148.804 50.5628 148.663 50.5628C148.381 50.5628 148.522 50.7036 148.804 50.8445C148.945 50.8445 148.945 50.8445 148.945 50.7036ZM154.719 70.5625C154.719 70.2808 154.578 70.2808 154.437 70.5625C154.437 70.7033 154.437 70.8442 154.437 70.8442C154.578 70.8442 154.578 70.7033 154.719 70.5625ZM149.79 71.2667C149.79 71.2667 149.79 71.1259 149.79 70.8442L149.649 70.5625V70.985C149.649 71.2667 149.649 71.4075 149.79 71.2667ZM148.522 80.2806C148.522 79.999 148.381 79.999 148.24 80.1398C148.1 80.2806 148.1 80.4215 148.381 80.4215L148.522 80.2806ZM156.55 96.4776C156.409 96.3367 155.987 96.1959 155.987 96.3367V96.4776C156.128 96.4776 156.268 96.4776 156.409 96.4776C156.55 96.6184 156.55 96.4776 156.55 96.4776ZM161.339 97.6043C161.198 97.6043 161.057 97.4635 161.057 97.4635C161.057 97.4635 161.057 97.6043 161.057 97.7452C161.057 97.886 161.057 98.0268 161.198 98.0268V97.886C161.198 97.7452 161.339 97.7452 161.339 97.886C161.48 97.886 161.48 97.886 161.48 97.7452C161.48 97.7452 161.48 97.6043 161.339 97.6043ZM164.86 98.0268C164.719 97.886 164.578 97.7452 164.578 97.7452C164.437 97.7452 164.296 98.0268 164.296 98.0268C164.437 98.1677 164.437 98.1677 164.437 98.0268L164.578 97.886L165.001 98.1677L164.86 98.0268ZM165.564 98.1677C165.564 98.0268 165.423 98.0268 165.423 98.0268C165.423 98.0268 165.423 98.0268 165.282 98.0268C165.001 98.1677 165.142 98.3085 165.423 98.3085C165.564 98.3085 165.564 98.3085 165.564 98.1677ZM168.663 98.1677C168.663 98.0268 168.663 98.0268 168.522 98.0268C168.522 98.0268 168.381 98.0268 168.522 98.1677C168.522 98.1677 168.522 98.3085 168.381 98.4494C168.24 98.5902 168.24 98.5902 168.24 98.5902C168.381 98.5902 168.381 98.5902 168.522 98.4494H168.663L168.803 98.7311V98.4494C168.663 98.3085 168.663 98.1677 168.663 98.1677ZM171.198 98.1677C171.198 98.0268 171.198 98.0268 171.057 98.0268C171.057 98.0268 170.916 98.1677 170.916 98.3085C170.916 98.4494 171.057 98.5902 171.198 98.5902C171.339 98.5902 171.339 98.5902 171.198 98.4494C171.198 98.4494 171.198 98.3085 171.198 98.1677ZM169.93 98.4494C169.93 98.3085 169.508 98.3085 169.508 98.3085C169.367 98.3085 169.367 98.4494 169.508 98.4494C169.508 98.5902 169.93 98.5902 169.93 98.4494ZM162.466 99.2944C162.466 99.2944 162.325 99.1536 162.043 99.1536L161.761 99.0127L161.902 99.1536C162.043 99.2944 162.466 99.4353 162.466 99.2944ZM150.955 111.829V111.97V111.829ZM180.814 2.39453L180.954 2.11284H188.137C193.489 2.11284 195.461 2.25369 195.461 2.25369C195.602 2.39453 195.602 2.81706 195.602 3.38043C195.602 3.9438 195.602 6.47897 195.602 9.01414C195.602 12.2535 195.602 44.5065 195.602 46.4784C195.602 46.4784 195.602 48.3093 195.602 50.5628C195.602 52.6754 195.602 54.5064 195.602 54.5064C195.602 54.6472 195.602 54.6472 195.602 54.6472C195.743 54.6472 195.743 71.6892 195.602 73.8019C195.602 75.7737 195.743 83.8017 195.743 84.0834C195.884 84.5059 196.447 85.0693 196.87 85.2101C197.011 85.2101 200.391 85.2101 204.475 85.2101C208.419 85.2101 211.799 85.351 211.94 85.351C212.222 85.351 212.222 85.4918 212.222 85.6327C212.081 85.7735 212.222 85.9144 212.222 85.7735H212.362L212.503 91.4072C212.503 94.5058 212.362 97.0409 212.362 97.1818C212.362 97.4635 212.362 97.4635 212.362 97.4635C212.503 97.4635 212.362 100.139 212.222 100.28C212.222 100.28 207.292 100.421 196.588 100.421H180.954L180.673 99.9986V51.267V2.53537L180.814 2.39453ZM192.644 29.718C192.644 29.5772 192.644 29.5772 192.644 29.5772C192.504 29.5772 192.504 29.5772 192.504 29.718C192.504 29.9997 192.644 30.2814 192.926 30.2814C192.926 30.2814 192.926 30.1406 192.785 30.1406C192.644 29.9997 192.644 29.8589 192.644 29.718ZM185.321 35.3518C185.321 34.9292 185.321 34.6475 185.321 34.6475C185.18 34.6475 185.18 34.6475 185.039 34.7884C185.039 34.9292 184.898 35.0701 185.039 35.3518C185.18 36.056 185.321 36.056 185.321 35.3518ZM185.461 36.901L185.321 36.7602C185.18 36.7602 185.18 37.7461 185.461 38.0278C185.602 38.0278 185.602 38.0278 185.461 37.6052C185.461 37.3236 185.461 37.0419 185.461 36.901ZM185.743 39.7179C185.743 39.4362 185.602 39.1545 185.602 39.0137L185.461 38.8728V39.4362C185.602 40.2813 185.743 40.4221 185.743 39.7179ZM186.306 40.9855C186.306 40.9855 186.166 40.9855 185.884 40.8446H185.602L185.884 40.9855C186.025 41.1263 186.166 41.2672 186.166 41.1263C186.306 41.1263 186.306 40.9855 186.306 40.9855ZM186.87 48.3093C186.87 48.1685 186.729 48.0276 186.729 47.8868V47.6051V47.8868C186.588 48.1685 186.729 48.4502 186.87 48.4502C187.011 48.4502 187.011 48.4502 186.87 48.3093ZM187.152 48.7318C187.152 48.591 187.011 48.591 187.011 48.591C186.87 48.591 186.729 48.591 186.729 48.7318C186.87 48.7318 186.87 48.8727 187.011 48.8727L187.152 48.7318ZM188.419 49.1544C188.278 49.0135 188.137 48.8727 187.997 48.8727C187.856 48.8727 187.715 48.8727 187.856 48.8727C187.997 48.8727 188.137 49.0135 188.137 49.1544L188.278 49.2952L187.856 49.0135V49.2952C187.715 49.5769 187.856 49.5769 188.137 49.5769L188.419 49.4361V49.1544ZM188.419 50.2811C188.419 50.2811 188.278 50.1403 188.137 50.1403H187.997L188.137 50.2811C188.278 50.422 188.419 50.5628 188.56 50.422C188.56 50.422 188.56 50.2811 188.419 50.2811ZM188.419 50.7036C188.419 50.5628 188.278 50.5628 188.137 50.5628C187.856 50.5628 187.997 50.7036 188.278 50.8445C188.419 50.8445 188.419 50.8445 188.419 50.7036ZM194.194 70.5625C194.194 70.2808 194.053 70.2808 193.912 70.5625C193.912 70.7033 193.912 70.8442 193.912 70.8442C194.053 70.8442 194.053 70.7033 194.194 70.5625ZM189.264 71.2667C189.264 71.2667 189.264 71.1259 189.264 70.8442L189.123 70.5625V70.985C189.123 71.2667 189.123 71.4075 189.264 71.2667ZM187.997 80.2806C187.997 79.999 187.856 79.999 187.715 80.1398C187.574 80.2806 187.574 80.4215 187.856 80.4215L187.997 80.2806ZM196.025 96.4776C195.884 96.3367 195.461 96.1959 195.461 96.3367V96.4776C195.602 96.4776 195.743 96.4776 195.884 96.4776C196.025 96.6184 196.025 96.4776 196.025 96.4776ZM200.813 97.6043C200.672 97.6043 200.532 97.4635 200.532 97.4635C200.532 97.4635 200.532 97.6043 200.532 97.7452C200.532 97.886 200.532 98.0268 200.672 98.0268V97.886C200.672 97.7452 200.813 97.7452 200.813 97.886C200.954 97.886 200.954 97.886 200.954 97.7452C200.954 97.7452 200.954 97.6043 200.813 97.6043ZM204.334 98.0268C204.194 97.886 204.053 97.7452 204.053 97.7452C203.912 97.7452 203.771 98.0268 203.771 98.0268C203.912 98.1677 203.912 98.1677 203.912 98.0268L204.053 97.886L204.475 98.1677L204.334 98.0268ZM205.039 98.1677C205.039 98.0268 204.898 98.0268 204.898 98.0268C204.898 98.0268 204.898 98.0268 204.757 98.0268C204.475 98.1677 204.616 98.3085 204.898 98.3085C205.039 98.3085 205.039 98.3085 205.039 98.1677ZM208.137 98.1677C208.137 98.0268 208.137 98.0268 207.996 98.0268C207.996 98.0268 207.855 98.0268 207.996 98.1677C207.996 98.1677 207.996 98.3085 207.855 98.4494C207.715 98.5902 207.715 98.5902 207.715 98.5902C207.855 98.5902 207.855 98.5902 207.996 98.4494H208.137L208.278 98.7311V98.4494C208.137 98.3085 208.137 98.1677 208.137 98.1677ZM210.672 98.1677C210.672 98.0268 210.672 98.0268 210.531 98.0268C210.531 98.0268 210.391 98.1677 210.391 98.3085C210.391 98.4494 210.531 98.5902 210.672 98.5902C210.813 98.5902 210.813 98.5902 210.672 98.4494C210.672 98.4494 210.672 98.3085 210.672 98.1677ZM209.405 98.4494C209.405 98.3085 208.982 98.3085 208.982 98.3085C208.841 98.3085 208.841 98.4494 208.982 98.4494C208.982 98.5902 209.405 98.5902 209.405 98.4494ZM201.94 99.2944C201.94 99.2944 201.799 99.1536 201.518 99.1536L201.236 99.0127L201.377 99.1536C201.518 99.2944 201.94 99.4353 201.94 99.2944Z" fill="white"/>
</svg>
