<svg width="326" height="484" viewBox="0 0 326 484" fill="none" xmlns="http://www.w3.org/2000/svg">
<path d="M2.74572 346.541C-6.28308 408.696 6.4796 437.327 48.1098 481.811C5.52991 404.115 4.28977 370.864 37.5789 327.715C34.5094 370.8 41.0408 390.553 62.6911 420.452C41.1876 358.184 52.3775 317.545 104.815 237.07C48.9384 271.662 25.1239 294.884 2.74572 346.541Z" fill="white"/>
<path d="M274.121 363.973C262.778 289.228 239.952 254.151 173.671 202.207C230.906 217.671 254.88 232.275 289.512 264.264C329.154 306.414 335.658 338.249 310.573 414.176C321.224 345.331 310.263 315.719 268.45 274.723C281.388 312.839 281.88 332.152 274.121 363.973Z" fill="white"/>
<path d="M68.3623 246.135C94.242 197.02 98.1473 167.705 85.374 112.26L118.587 147.123C152.074 112.418 161.182 79.2885 163.141 0C172.391 76.0941 167.101 116.222 130.738 181.29C108.398 211.072 94.5964 224.955 68.3623 246.135Z" fill="white"/>
<path d="M180.152 19.5234C189.195 88.7496 186.94 126.49 173.671 192.446L197.974 128.297L209.314 169.436L226.326 142.94C235.714 190.841 252.191 212.928 284.651 251.016C253.055 184.053 244.097 145.262 257.919 71.8182C241.899 86.3555 233.309 94.4562 219.035 108.774C199.144 78.7474 191.476 58.3392 180.152 19.5234Z" fill="white"/>
<path d="M69.1715 321.44C113.726 227.309 167.191 192.445 167.191 139.453C171.302 168.053 168.756 183.643 155.039 210.575C155.442 219.173 117.449 267.642 94.2838 327.715C71.1189 387.789 147.756 449.505 209.314 414.177C248.692 391.577 239.9 365.74 226.326 327.715C211.537 351.897 199.771 363.029 173.671 379.313C201.217 338.886 213.349 314.086 226.326 264.264C258.659 314.678 266.83 345.147 256.298 400.231C252.433 420.452 211.429 471.352 149.863 465.774C71.2861 453.224 48.1094 405.112 69.1715 321.44Z" fill="white"/>
</svg>
