<?xml version="1.0" encoding="UTF-8"?>
<svg id="Layer_1" data-name="Layer 1" xmlns="http://www.w3.org/2000/svg" viewBox="0 0 923.08 923.2">
  <defs>
    <style>
      .cls-1 {
        fill: #ed2024;
      }
    </style>
  </defs>
  <path class="cls-1" d="M717.18,82.26c13.38,7.92,17.88,25.96,9.59,39.18-2.94,4.85-6.92,8.48-11.9,10.84-4.9,2.34-10.12,3.25-15.54,2.66l3.08,26.63-26.79-16.25-2.59-23.11-22.47-13.63-9.55,15.75-25.15-15.26,39.15-64.52,62.17,37.72v-.01ZM668.72,78.67l-6.67,10.99,30.67,18.61c1.54.93,3.15,1.19,4.85.78,1.77-.43,3.09-1.41,3.99-2.9,1.86-3.07.9-7.01-2.17-8.87,0,0-30.67-18.61-30.67-18.61Z"/>
  <path class="cls-1" d="M784.84,138.37l23.77,25.66-27.83,80.98-22.52-24.3,5.43-13.14-25.68-27.72-13.52,4.41-22.52-24.3,82.87-21.6v.01ZM757.31,173.59l14.08,15.2,9.33-22.73-23.41,7.53h0Z"/>
  <path class="cls-1" d="M836.03,264.88l23.88,45.36-38.31,20.16-6.85-13.02,9.7-6.76c-11.73-3.72-20.66-14.06-26.62-25.39-13.13-25.19-16.71-49.58,8.58-62.77l4.87-2.56c25.24-13.41,43.32,3.34,56.6,28.45,12.19,23.15,15.92,45.55-3.11,59.31l-14.57-27.67c1.37-2.82,1.61-5.99.78-9.48-.83-3.5-2.26-7.19-4.27-11.01-5.77-10.6-12.52-18.6-23.32-12.72l-1.64.86c-11.06,5.63-8.19,15.67-2.71,26.43,5.41,10.28,9.46,16.53,16.6,17.79l-11.04-20.97,11.43-6.02v.01Z"/>
  <path class="cls-1" d="M905.61,352.45l7.02,34.27-65.81,54.8-6.64-32.45,11.46-8.42-7.58-37.02-13.85-3.24-6.64-32.45,82.05,24.53-.01-.02ZM863.81,368.29l4.16,20.3,19.77-14.59-23.92-5.71h-.01Z"/>
  <path class="cls-1" d="M923.08,448.32l-4.19,36.6-40.84,24.94,34.13,33.58-4.19,36.54-74.98-8.59,3.35-29.23,40,4.58-36.64-33.87,1.68-14.62,43.35-24.7-40-4.58,3.35-29.23,74.98,8.59v-.01Z"/>
  <path class="cls-1" d="M837.43,722.38c-8.11,13.28-26.2,17.52-39.31,9.05-4.81-3.01-8.38-7.03-10.68-12.05-2.28-4.94-3.12-10.16-2.45-15.57l-26.68,2.72,16.62-26.56,23.15-2.28,13.94-22.28-15.62-9.77,15.61-24.95,63.98,40.03-38.57,61.65.01.01ZM841.69,673.97l-10.9-6.82-19.03,30.42c-.95,1.52-1.23,3.14-.84,4.84.41,1.78,1.37,3.11,2.84,4.03,3.05,1.91,6.99,1,8.9-2.05l19.03-30.42h0Z"/>
  <path class="cls-1" d="M780.38,789.25l-25.98,23.42-80.6-28.94,24.6-22.18,13.07,5.61,28.07-25.3-4.23-13.58,24.6-22.18,20.46,83.16.01-.01ZM745.54,761.24l-15.39,13.87,22.6,9.64-7.21-23.51h0Z"/>
  <path class="cls-1" d="M653.15,838.71l-45.69,23.25-19.63-38.59,13.11-6.67,6.62,9.8c3.89-11.68,14.35-20.47,25.76-26.28,25.38-12.79,49.81-16.02,62.65,9.45l2.5,4.9c13.06,25.42-3.94,43.27-29.24,56.21-23.32,11.87-45.78,15.29-59.27-3.93l27.88-14.19c2.8,1.41,5.96,1.69,9.47.91,3.51-.78,7.22-2.16,11.07-4.12,10.68-5.62,18.77-12.26,13.05-23.15l-.84-1.65c-5.48-11.14-15.55-8.4-26.39-3.08-10.36,5.27-16.66,9.23-18.02,16.35l21.12-10.75,5.86,11.51-.01.03Z"/>
  <path class="cls-1" d="M564.61,907.06l-34.36,6.54-53.88-66.57,32.54-6.19,8.26,11.57,37.12-7.07,3.43-13.8,32.54-6.19-25.66,81.7.01.01ZM549.35,865.04l-20.35,3.87,14.32,19.97,6.04-23.84h-.01Z"/>
  <path class="cls-1" d="M468.53,923.2l-36.54-4.7-24.36-41.18-34.06,33.66-36.48-4.7,9.64-74.85,29.18,3.76-5.14,39.93,34.38-36.17,14.59,1.88,24.1,43.7,5.14-39.93,29.18,3.76-9.64,74.85.01-.01Z"/>
  <path class="cls-1" d="M195.72,833.73c-13.16-8.29-17.15-26.44-8.5-39.43,3.07-4.77,7.15-8.28,12.19-10.51,4.97-2.21,10.2-2.97,15.6-2.23l-2.35-26.71,26.33,16.99,1.95,23.18,22.08,14.25,9.98-15.47,24.72,15.95-40.91,63.41-61.1-39.42.01-.01ZM244.05,838.66l6.97-10.8-30.15-19.45c-1.51-.97-3.12-1.28-4.83-.91-1.79.38-3.13,1.32-4.07,2.79-1.95,3.02-1.09,6.98,1.93,8.93l30.15,19.45v-.01Z"/>
  <path class="cls-1" d="M129.61,775.77l-23.06-26.3,30.06-80.19,21.84,24.91-5.79,12.99,24.91,28.42,13.63-4.04,21.84,24.91-83.44,19.31.01-.01ZM158.1,741.31l-13.66-15.58-9.95,22.46,23.61-6.89v.01Z"/>
  <path class="cls-1" d="M81.93,647.88l-22.61-46.01,38.86-19.09,6.49,13.21-9.89,6.49c11.62,4.05,20.27,14.63,25.91,26.12,12.43,25.55,15.32,50.03-10.33,62.51l-4.94,2.43c-25.6,12.71-43.22-4.54-55.8-30.02-11.54-23.49-14.65-45.99,4.75-59.21l13.79,28.07c-1.45,2.78-1.77,5.94-1.04,9.46.73,3.52,2.06,7.25,3.97,11.13,5.48,10.76,12,18.94,22.96,13.37l1.66-.82c11.21-5.32,8.62-15.44,3.45-26.35-5.13-10.43-9-16.79-16.1-18.24l10.45,21.27-11.59,5.7.01-.02Z"/>
  <path class="cls-1" d="M14.82,558.37l-6.06-34.45,67.31-52.93,5.73,32.63-11.69,8.1,6.54,37.22,13.75,3.63,5.73,32.63-81.33-26.81.02-.02ZM57.05,543.71l-3.59-20.4-20.17,14.03,23.75,6.37h.01Z"/>
  <path class="cls-1" d="M0,462.08l5.21-36.47,41.52-23.79-33.18-34.53,5.21-36.41,74.71,10.68-4.17,29.13-39.86-5.7,35.68,34.88-2.08,14.56-44.03,23.48,39.86,5.7-4.17,29.13L0,462.08Z"/>
  <path class="cls-1" d="M93.26,190.52c8.47-13.04,26.68-16.79,39.55-7.95,4.72,3.14,8.18,7.26,10.34,12.34,2.14,5,2.83,10.24,2.01,15.63l26.74-1.97-17.35,26.09-23.2,1.63-14.55,21.88,15.33,10.2-16.29,24.5-62.84-41.79,40.27-60.54-.01-.02ZM87.66,238.79l10.71,7.12,19.87-29.88c1-1.5,1.32-3.1.98-4.81-.36-1.79-1.28-3.14-2.73-4.11-2.99-1.99-6.96-1.19-8.95,1.8l-19.87,29.88h-.01Z"/>
  <path class="cls-1" d="M152.1,125.25l26.62-22.7,79.78,31.15-25.21,21.5-12.91-5.96-28.75,24.52,3.85,13.69-25.21,21.5-18.17-83.69v-.01ZM186.17,154.2l15.77-13.45-22.33-10.26,6.56,23.7v.01Z"/>
  <path class="cls-1" d="M280.64,79.35l46.32-21.97,18.55,39.12-13.29,6.3-6.35-9.98c-4.21,11.57-14.91,20.06-26.48,25.55-25.72,12.07-50.24,14.63-62.36-11.19l-2.36-4.97c-12.35-25.78,5.14-43.15,30.79-55.37,23.64-11.21,46.18-14.01,59.14,5.57l-28.26,13.4c-2.76-1.49-5.91-1.86-9.45-1.18-3.53.68-7.27,1.96-11.18,3.81-10.84,5.33-19.11,11.73-13.69,22.77l.79,1.67c5.17,11.28,15.31,8.83,26.29,3.81,10.5-4.98,16.91-8.77,18.46-15.84l-21.41,10.15-5.53-11.67.02.02Z"/>
  <path class="cls-1" d="M371.06,13.48l34.54-5.58,52.01,68.05-32.71,5.28-7.94-11.8-37.31,6.03-3.82,13.7-32.71,5.28,27.93-80.96h.01ZM385.14,55.92l20.46-3.31-13.76-20.36-6.7,23.67h0Z"/>
  <path class="cls-1" d="M467.57,0l36.39,5.72,23.21,41.84,34.97-32.7,36.33,5.71-11.71,74.55-29.06-4.57,6.25-39.77-35.37,35.19-14.53-2.28-22.87-44.34-6.25,39.77-29.06-4.57L467.57,0Z"/>
</svg>