<?xml version="1.0" encoding="UTF-8"?>
<svg id="Layer_1" data-name="Layer 1" xmlns="http://www.w3.org/2000/svg" viewBox="0 0 940.26 940.26">
  <defs>
    <style>
      .cls-1 {
        fill: #f04d4c;
      }

      .cls-2 {
        fill: #ee2726;
      }

      .cls-3 {
        fill: #ee2727;
      }

      .cls-4 {
        fill: #ee2827;
      }
    </style>
  </defs>
  <path class="cls-3" d="M940.255,479.369c-24.39.59-47.2,10.63-69.36,19.84-.33,2.03,1.67,1.16,3.06,1.23,15.79.77,28.41,3.44,42.75,10.53l14.87,34.05-9.13.16-9.44,2.32h21.06l-28.03,4.79-7.7-.05-7.64-18.35c7.61-1.14,15.23-1.87,22.92-2.5,1.82-.15,3.61,1.01,3.07-1.82-.63-3.03-12.65-7.71-16.08-8.7-19.75-5.68-46.51-2.88-60.7,13.01h23.54l-3.72-7.42,18.46,2.59,8.79,24.64-14.86-.62,22.29,16.72-16.11-5.58-1.22,3.09,39.1,17.28,4.25,19.89c-30.08-3.78-62.61-4.09-91.05,7.41l-6.81-19.78c14.67-1.87,26.42-10.97,35.92-21.69l-10.53-6.8-1.23,3.7-14.85-13.64-1.87-23.51,6.81,6.19c.37-5.34-5.5-11.02-6.83-16.78.09-3.12,15.71-12.17,19.84-12.96l-7.43-13.59c13.66-4.46,22.32-17.42,28.49-29.73l-12.38-4.97.62,4.95c-3.63-3.73-13.6-5.31-16.71-8.06-1.49-1.32-1.58-3.2-2.53-4.67-.52-.8-2-.9-2.1-1.12-.26-.58.82-2.61.11-4.41-1.62-4.1-3.58-8.08-5.4-12.09,2.25-1.75,9.8,5.21,11.05,4.32l17.41-37.77-21.44,4.22c-1.27-2.25-14.11-14.02-11.98-15.97,14.96-.14,32.35-4.75,46.48-9.88,17.51-6.35,34.1-16.18,48.89-27.29-.57,5.25,1.98,10.27,1.33,15.54-.47,3.77-3.05,8.7-3.63,13.74-.95,8.23.11,29.89-3.84,35.8-2.21,3.31-5.11,3.67-8.76,2.5-4.76-1.51-28.93-22.26-30.91-20.51l-11.15,24.17,8.66-2.49-17.34,23.52,17.89,6.89,1.94-7.49c.89-.77,21.46,6.31,22.38,7.05.18.15,2.57,3.94,2.39,4.09l-13.61-3.7v4.93l42.52,6.42,9.5,15.9v2.48l-.02-.02ZM905.565,399.479c.74-6.39-.54-13.9,0-20.44l-21.07,11.78c.03,4.11,17.95,16.17,19.83,14.24-.75-2.1,1.09-4.24,1.25-5.58h-.01ZM903.085,470.719l-19.01-3.59-10.72,17.19,29.73-13.6ZM869.645,551.229l-16.11-1.23c5.5,5.5,15.01,15.23,16.11,1.23ZM886.975,587.159c-6.32-2.03-11-7.64-17.79-8.43l-14.41,13.36,32.2-4.93h0Z"/>
  <path class="cls-3" d="M470.745,940.179c-.16-.01-1.49-1.05-3.01-1.3-1.9-.31-5.65.68-6.75-.1-.86-.61-.22-3.65-2.31-4.81-8.13-4.5-26.87-6.53-36.28-10.48-22.15-12.76,13.89-26.49,21.07-37.19l-22.9-17.96c-1.19,2.76,2.04,3.03,3.34,6.53.45,1.22,2.03,3.8.39,4.61l-21.07-24.74-10.46,14.32c-.83,3.61,7.62,4.02,7.35,4.84-3.6,3.97-13.26,23.86-16.73,25.4-.71.31-2.1.22-1.83-.6l7.39-14.89-3.05-1.84c-1.29.3-7.56,13.66-8.64,16.15-1.93,4.44-7.26,22.81-9.38,24.06l-18.52,4.38c2.95-24.43,1.51-49.1-3.74-73.08l-7.24,20.61c-2.31,4.87-10.37,18.85-14.41,21.51-7.79,5.13-27.12,3.97-36.55,7.42l1.22-13.62c-3.04.48-.31,7.43-4.94,6.18l3.96-25.74,19.57-3.98-3.72,26.01c3.36,2.37,8.59-4.92,10.44-7.5,13.35-18.6,19-46.61,6.27-66.8l-5.56,21.05c1.02,1.01,8.66-3.6,7.4.59l-7.4,14.91-24.78,3.08,3.1-13.61-22.91,19.81c-.45-5.73,8.54-10.99,10.54-14.84,1-1.92-.47-3.74-1.26-3.71s-10.3,10.12-11.74,11.78c-3.31,3.81-13.81,20.68-15.43,21.74-5.37,3.51-14.52-.77-20.53-.1,11.65-28.74,18.27-60.48,14.86-91.66h19.82c-.17,13.28,4.03,27.56,12.37,37.83l9.92-5.64-3.7-3.07,16.06-11.24,23.58,3.2-8.66,6.17,20.25-3.81c4.19,6.81,6.95,14.47,8.24,22.41l13.6-4.96c1.79,10.45,7.59,20.3,14.85,27.9,8.99,9.4,8.11,7.6,14.88-2.53l-4.93-1.82c5.15-1.49,9.19-11.17,12.94-13.7,5.11-3.44,18.06-3.69,24.21-3.65-.86,3.08-8.59,6.56-6.89,9.89l32.91,26.02v-21.68l17.33-9.29c-1.71,27.51-1.05,52.57,6.83,79.27,2.25,7.61,5.52,14.82,8.05,22.3-2.44-.15-5,.22-7.43,0l.01-.03ZM257.665,815.069v27.87c0,1.37-3.85,4.97-1.86,6.81,4.41-5.09,8.24-10.98,14.27-14.26l-12.41-20.42ZM301.025,826.229l-13.63,8.68c-.37.54,5.68,7.47,8.01,6.16l1.27-1.25,4.35-13.59h0ZM364.215,891.869c2.48-1.25,10.06-16.76,9.8-17.84l-15.99-15.61c3.56,10.78,6.41,21.95,6.19,33.44v.01ZM448.435,893.109l-13.63,9.28c-2.27,2.39-5.64,4.22-4.94,8.04l24.76,7.44-6.19-24.76Z"/>
  <path class="cls-2" d="M501.715-.011c.64,30.7,10.11,61.06,25.78,87.35l-16.7,10.32-9.05-14.09-19.23-15.43c-.75,0-5.13,9.14-5.55,10.53-1.16,3.87,5.37-1.53,3.68,2.43-.74,1.74-8.92,15.24-9.96,16.06l-22.23,8.11c-1.44-1.71,7.36-8.63,1.87-8.66l-13.65,11.09-17.34-17.28-9.91,9.87c-8.83-9.93-21.22-18.14-34.58-19.88l-3.19,12.47,4.93-1.87c-3.25,5.39-2.44,14.01-5.65,19.13s-15.42,8.85-19.73,13.7l3.11-12.37-42.13-8.67,9.72,20.25-11.57,14.4c-10.45-25.01-23.33-49.52-42.1-69.36-4.06-4.29-11.43-8.72-14.28-12.99-.89-1.34-1.94-.87.02-2.47.71-.58,12.52-5.34,13.23-5.4,2.28-.18,3.01,2.78,4.66,3.05,3.81.63,23.92-5,29.92-5.58,5.11-.5,16.85-1.97,18.56,3.55,2.49,8.03-15.01,36.52-13.13,38.42l26.63,6.22c2.31-2.75-3.17-3.86-4.31-5.6,4.84-2.81,26.08,11.87,28.48,9.3l1.25-19.83c-2.5-.65-7.52,1.85-7.49-1.86.08-7.78,2.39-17.4,2.53-25.39h3.71l.01,14.87c2.94.91,3.32-2.21,3.58-4.43,1.47-12.59-1.94-25.86-3.11-38.37l16.85-12.93c2.08,11.29,7.88,22.95,13.42,33.03,6.1,11.1,13.41,20.18,20.66,30.13,2.18-1.62-1.86-4.64-1.86-5.57v-32.21c0-.59,3.12-10.47,3.66-11.21,4.03-5.51,22.95-13.38,27.93-20.36l4.35,12.36c1.94.41,1.37-2.56,1.23-3.71h1.24c.52,1.72,2.6,5.2,3.72,8.67l1.24,2.48c1.19,3.7,1.36,7.67,3.63,11.04l-15.42,11.24-2.14-1.52-7.15-23.24c-3.3-.51-2.97,1.77-3.7,3.71l-1.24,3.72c-.17.71.13,1.7,0,2.48l-1.24,4.95c-.46,5.25-.56,14.65,0,19.82l1.24,3.72c.07.4-.09.85,0,1.24l1.24,2.48c.44,1.6.68,3.45,1.24,4.95l1.24,2.48c3.82,9.01,9.35,19.32,18.58,23.54l1.26.6c.7-1.36-1.17-2.58-1.26-3.07-.52-2.82-.63-5.84-1.24-8.67l-1.24-4.95c-.17-1.17.11-2.51,0-3.72l-1.86-1.23-.62,1.23c-.74.14-2.69,1.87-3.72,2.48l-2.48-2.48c-.28-3.68-.75-13.08,1.25-15.48.74-.89,17.96-12.49,19.22-12.99,3.09-1.24,2.88,8.17,3.07,9.89.17,1.62-.13,3.33,0,4.95h2.47c.2-.75-.22-1.96,0-2.47,3.48-7.81,6.69-15.62,9.91-23.54h1.24c-.21,1.56.27,3.48,0,4.95l-1.24,2.48c-.42,2.35-1.15,5.17-1.24,7.43l-1.24,1.83,1.24.65h3.69c-.19-3.03.48-5.81,1.27-8.67l1.24-2.48c.1-.38-.1-.85,0-1.24l1.24-2.48c.56-2.4.75-5.01,1.24-7.43l1.24-4.95c.9-5.16,1.09-10.71,1.4-15.94L499.235-.021h2.48v.01ZM504.185,68.109l-11.75-30.95c-1.93,4.49-6.75,14.56-5.64,18.99l17.39,11.97v-.01ZM389.775,66.069l-14.4-19-1.26,19.81,17.34,3.71-1.68-4.52ZM309.705,59.449c-1.17-1.2-23.29,1.52-26.01,4.32,4.41,4.53,9.14,12.06,13.57,16.16,1.2,1.11,1.78,2.25,3.74,1.81.82-3.59,10.86-20.07,8.7-22.28v-.01ZM463.295,79.269l6.18-15.49c-16.73-9.51-7.99,4.44-8.17,14.19l1.99,1.3h0Z"/>
  <path class="cls-4" d="M-.005,434.779c29.26-10.08,60.79-12.82,91.69-10.55l9.89,16.73c-16.25-.6-32.61-2.16-48.92-1.21-4.17.24-30.57,3.09-31.6,5.57l25.63,13.55c1.25,7.54-16.83,18.21-20.68,24.22,13.02-3.63,26.06-7.61,39.64-8.67l-1.24-3.71h26.02l9.9,19.81c-33.83-3.42-70.03,3.31-100.34,18.59v-18.58c9.99-5.81,17.28-16.51,25.99-24.16l-21.58-10.6L-.015,436.019v-1.24H-.005Z"/>
  <path class="cls-3" d="M732.135,755.609l6.21,19.82,6.81-3.69,11.75,32.18c-5.14-2.73-6.44-16.38-11.75-17.35-1.7-.31-2.38.07-1.84,1.84,1.85,6.18,9.57,19.13,13.15,25.25,1.58,2.7,7.19,8.69,7.68,11s-7.45,18.88-9.08,18.88c-16.21-17.8-36.58-31.65-58.84-40.84,11.11,11.9,16.4,27.31,20.57,42.72l-16.85,30.99-6.82-4.4-2.47,2.52-17.62-17.94,8.94-17.98c5.76,4.74,10.96,12.3,16.72,16.72,1.24.95,1.57,2.4,3.72,1.84,3.06-2.95-5.65-23.13-8.02-27.27-8.31-14.49-25.41-28.49-42.16-30.92l11.8,18.55c3.8-.97,2.12-7.24,6.15-6.18l7.38,14.24-12.93,22.89-9.28-12.36,1.21,29.72-4.83-16.61-3.82-.72c1.96,14.59,4.64,29.25,10.79,42.75-4.84,3.88-8,10.55-11.93,14.67-.98,1.03-.83,1.15-2.56.79-12.69-26.49-35.12-51.17-60.67-65.71l9.85-17.92,17.4,9.88,22.25,4.39v-13.63l-4.95,3.71,1.46-21.44,17.74-16.95c1.32,2.68-3.14,9.24.6,11.13,1.54-3.14,5.2-15.37,7.43-16.72,6.23-3.76,22.83,7.34,24.78,5.58l2.5-12.4c7.05,1.32,12.97,4.43,20.45,4.94s14.22-1.18,21.66-1.22l-2.49-12.38c-3.23-1.61-2.24,5.06-4.32,1.23-2.54-4.68-1.66-11.79-4.33-16.85l11.16-21.53,2.46.61.18,8.48,2.91,2.09,39.02-9.97-16.19-13.22,3.82-20.2c1.91.23,1.93,2.82,3.63,4.4,23.9,22.19,53.76,38.87,85.55,46.4.49.64-10.42,11.41-11.17,11.73-2.44,1.05-5.08.44-8.14,1.77-8.74,3.81-21.19,18.63-30.44,21.58-5.12,1.63-9.69,1.62-11.63-4.08-.29-.85-1.81-7.69-1.81-8.1v-27.87l-29.72,6.21,12.38,2.48c.41.33-1.58,2.46-1.86,2.46h-31.59v.01ZM790.355,744.459v23.54c10.07,1.29,15.01-9.35,23.54-12.41,1.37-2.05-21.49-9.24-23.54-11.13ZM730.865,791.529l-23.5,3.71c11.05,3.27,21.44,8.47,30.95,14.88l-7.45-18.59ZM646.665,836.129c1.74.5,9.89-1.38,9.88-3.1l-11.11-14.24,1.23,17.35v-.01ZM637.975,869.569l-4.89-19.25-18.63-3.04c-.63,2.67,1.49,2.75,2.82,3.98,6.66,6.12,14.35,11.69,20.69,18.31h.01Z"/>
  <path class="cls-3" d="M56.985,559.889v-3.69c-14.35-2.54-29.26-1.25-43.72,0l-12.03-17.35c29.99-5.05,57.75-23.39,80.07-43.28l14.06,14.16c-10.52,8.93-19.33,19.46-22.15,33.36l11.65,4.41c1.73-1.66-2.88-3.76,1.24-3.74,2.91.01,14.45,3.01,16.63,4.45,1.31.86,11.54,17.52,12.44,19.77.23.57.33,2.03-.6,1.83-2.31-2.35-7.26-4.26-10.53-3.1,3.01,3.54,15.81,9.23,16.03,13.57.29,5.87-9.32,15.99-12.31,21.13l12.37,7.41c-9.84,10.61-11.97,25.1-13.62,39.02h14.85l-3.7-4.94c19.41-3.49,24.64,5.44,37.15,16.72l-12.38.61v37.78c0,.18,1.5,3.26,1.85,3.09l16.17-12.45,17.89,8.72c-1.41.13-2.97.64-4.14,1.44-26.73,18.24-52.16,42.91-65.24,72.9-2.51-2.33-9.11-10.49-9.66-13.29-.41-2.08,1.13-4.35.52-7.8-1.61-9.04-11.82-23.54-14.05-33.11-5.46-23.41,30.18-6.53,41.79-6.49v-29.73c-2.23-.65-2.74,14.9-6.19,11.14l6.2-32.2-18.59,1.24,1.25,8.66-30.97,2.48,17.33-4.96-3-3.65c-9.29,2.17-18.57,4.16-27.67,7.05-3,.95-10,4.93-11.01,5.03-4.27.44-11.27-10.3-16.53-10.93-2.08-3.04,8.08-6.85,9.82-8.11,15.77-11.38,30.4-25.34,42.21-40.79l-17.05,5.25c-8.46.02-18.64,4.37-26.92,2.76-1.82-.35-27.86-22.27-27.88-24.12l12.36-8.68c.03-1.4-9.37,2.36-4.9-1.18,2.66-2.11,16.4-11.08,18.89-10.44l14.51,13.47-21.03,11.81c-2.18.91.03,3.07.6,3.07h21.06c.68,0,11.27-3.82,12.85-4.49,12.54-5.33,28.48-17.99,32.36-31.42l-19.81,7.44,4.95,7.4-17.72,3.53c-5.43-5.61-11.77-10.48-17.41-15.8-1.05-.99-1.13-.85-.79-2.57l20.83-5.81,11.36-5.34-15.28-2.55-2.7,7.51-31.57-6.22h19.82l.04.02ZM39.645,541.299c6.47,1.35,13.3,2.01,19.89.71l8.59-20.51-11.22,9.21-17.26,10.59h0ZM96.615,629.269l-22.29,24.75,19.71-3.81,2.59-20.94h-.01ZM125.115,717.209c-5.11,1.5-19.85-6.9-23.02-2.56-2.18,2.99,7.54,23.32,8.79,23.61,2.1.48,2.43-1.76,3.3-2.87,1.71-2.18,12.41-16.75,10.93-18.18Z"/>
  <path class="cls-2" d="M48.305,255.169c11.11,2.45,21.68,6.6,32.98,8.52,9.26,1.58,24.2,3.71,33.3,3.86,2.27.04,4.51-1.27,6.81-1.25l-9.06-3.93c-5.39-2.89-25.67-20.66-27.42-25.84-3.19-9.47,2.66-25.4.56-35.87l16.09,3.71-9.9-6.17,27.08,8.83-1.08,19.65-24.76-8.67c-3.59,5.06,12.38,18.86,16.2,21.57,13.77,9.77,36.97,17.72,53.15,10.01-4.8-1.1-14.12-8.7-17.95-9.31-3.61-.57-1.44,7.68-4.93,6.2l-11.56-9.51,1.02-26.4,13.61,7.43-12.38-23.52c2.84-.53,3.16.29,4.8,2,.54.56,7.95,13.56,8.83,7.25.49-3.49-21.47-31.48-27.35-33.61l5.05-20.24,23.14,14.63c20.04,9.78,41.4,16.92,63.57,20.06l-3.72,19.81c-13.16-4.56-28.07-2.57-40.34,3.68l4.44,11.18,3.69-3.7,6.95,19.21-8.19,22.89-4.94-11.14v21.06c-8.14,2.43-16.31,2.88-24.78,2.47l1.25,14.87c-14.38-1.05-26.76,6.25-38.41,13.65l9.3,11.12,1.84-4.94c2.06,5.72,7.93,9.57,10.42,14.98,2.7,5.87-2.46,17.14-.5,24.65-3.81-1.41-5.33-9.51-9.93-8.21l-30.94,25.54,21.12,4.37,4.89,19.16c-25.65-8.61-52.78-12.82-79.95-11.18-7.14.43-14.25,3.44-21.63,2.52-.58-.51,3.66-14,4.36-14.83,1.28-1.5,4.04-1.35,6.15-3.76,5.36-6.15,10.48-21.12,15.75-28.85,7.11-10.42,11.41-12.22,18.82-.73,4.99,7.75,9.3,18.61,13.16,27.11l24.76-19.2c-2.79-1.78-9.01,4.68-11.13.64l26.01-12.42-11.91-14.79-6.05,6.13-20.44-20.44c5.42-3.34,13.43,11.28,15.49,4.34-10.3-10.08-22.3-18.61-35.32-24.77v-19.82h-.02ZM174.665,191.989c.23-5-5.42-3.26-8.73-4.27-3.56-1.08-17.62-7.17-19.76-5.62l10.51,14.54c5.76-2.22,11.64-5.27,17.98-4.65ZM158.555,230.389c1.41-1.87-6.95-16.05-8.04-16.08l-6.81,5.57c-.56,2.41.7,1.55,1.55,2.16,4.27,3.08,9.24,4.95,13.29,8.35h.01ZM113.965,277.479c-11.4,2.28-23.21,1.33-34.69,0l14.43,12.23,20.26-12.24v.01ZM60.695,357.969c-1.48-3.68-8.18-20.46-11.75-20.74-4.03-.32-14.39,20.66-13.03,21.98l24.77-1.24h.01Z"/>
  <path class="cls-2" d="M784.165,208.089l32.2-8.66-18.58,8.67c-.34,1.92.79,3.63,2.85,3.53,8.04-.41,29.94-14.39,37.39-19.29l19.22,10.18c-23.84,18-42.57,46.76-52.04,74.94l-19.81-6.21c6.28-13.14,9.23-26.31,6.19-40.87l-13.62,2.5,3.71,3.69-19.21,3.19-20.43-11.87c-1.08-5.95,10.99,1.04,9.91-4.93l-19.66-3.9c-.94-8.54.01-16.43,2.31-24.6l-14.87-1.25c4.14-13.39.44-27.76-4.92-40.3l-12.41,5.64,4.95,1.24c.41.3-.72,1.53-1.23,1.86-1.18.77-16.09,7.68-17.01,7.81-4.95.68-16.38-7.01-22.64-5.97-3.21-2.75,11.52-5.47,11.14-6.79l-18.58-37.79c-4.43,2.67-6.57,15.87-9.92,17.94-2.19,1.36-18.54,2.79-19.8,1.87,14.34-24.09,24.14-49.85,28.3-77.61.94-6.24.69-12.63,1.42-18.41.15-1.19-.21-2.74,1.85-1.82.82.37,11.44,7.4,11.85,7.98,1.35,1.91,1.2,4.39,2.95,6.96,3.7,5.4,14.71,12.23,19.93,17.23,4.39,4.2,12.91,10.72,9.87,17.35-2.9,6.32-30.47,11.04-37.77,12.42l12.4,28.48,2.45-8.65,8.1,27.25,16.7-8.7-4.95-8.63,27.25-14.87c-3.11,4.64-15.94,10.22-11.77,16.08,5.35-6.38,13.13-10.05,19.22-15.46,2.9-2.58,12.14-14.06,14.24-14.26l19.18,4.33c-14.06,19.47-23.68,43.68-27.23,67.51l13.03-14.82,23.81-14.67,34.47,9.65c.4.66-3.71,8.88-4.51,10.22-.72,1.2-4.39,1.06-1.78,3.43l4.33-3.71c-1.32,6.92-6.94,13.5-11.16,19.27l-19.8-4.42,14.86-23.51c-4.27-3.12-25.43,12.21-29.16,16.04-10.32,10.6-19.18,29.66-17.91,44.64,1.92,2.16,12.82-14.27,14.85-15.48l-7.42-2.47,12.04-11.57,26.36,6c-3.14,4.74-7.07,8.46-11.15,12.38-.19.18-2.35.56-3.76,1.76-3.51,2.97-6.35,8.53-9.86,11.86,2.97.43,17.96-2.5,16.75-6.14l-3.12-6.24v-.03ZM666.485,96.599c32.23-5.37,24.49-9.67,4.32-26l-4.32,26ZM733.365,164.729c.31-11.23,4.57-21.55,7.44-32.19l-14.76,11.95,7.32,20.24ZM820.085,219.249c-1.48-1.36-14.03,5.44-16.81,6.12,1.59,7.38,2.46,14.76,1.96,22.36l14.85-28.48Z"/>
  <path class="cls-3" d="M262.615,164.729c-2.31.54-2.4-.78-3.5-2.06-4.37-5.06-8.23-12.88-12.62-18.35-11.18-13.9-24.12-26.4-37.76-37.8-2.75,6.7,5.25,22.32,4.45,27.74-.21,1.4-3.13-.1-2.57,1.97l4.94,2.48-34.67-4.34c10.51,7.48,23.56,14.82,30.99,25.38l3.07-3.68c2.02,5.24,13.21,13.71,14.89,17.36,1.84,4.02-5.21,17.82-7.45,22.23-20.22-27.19-46.74-52.48-78.66-65,4.77-2.94,9.96-9.54,15.54-10.46,6.36-1.05,33.58,5.19,35.24,3.64l-7.01-22.94,13.37-16.53c.88-.53,1.76-.21,2.65.06,4.25,1.33,22.06,15.76,26.34,19.56,5.23,4.64,11.29,10.95,16.09,16.12,5.43,5.85,17.04,18.68,21,24.89.74,1.16,1.79,2.15,1.32,3.71l-5.62,16-.03.02Z"/>
  <path class="cls-3" d="M566.155,39.629l2.56-.77,13.11-18.84c3.21-.36,20.77-.87,21.53,1.83-.5,3.76,1,7.25,1.24,10.92,1.47,22.71-2.52,52.92-8.03,75.07-.51,2.03-.79,3.5-2.77,4.67s-12.97,4.36-15.92,5.14c-2.56.67-1.66.23-1.21-1.21,1.58-5.08,3.98-10.68,5.25-15.82,4.95-20.04,7.63-40.34,7.75-60.98-2.45-.64-2.4,1.02-3.48,2.08-4.87,4.76-9.71,12.62-14.43,17.87l-4.38-.14v4.94l-16.1-28.48c.96,13.69,1.88,27.2,0,40.87l3.72-.6-5.16,23.34-22.11,6.99c11.66-32.09,10.5-68.35,3.72-101.56,4.63.94,12.38,1.39,16.03,4.4,5.74,4.72,14.47,23.33,18.67,30.28h.01Z"/>
  <path class="cls-2" d="M908.035,632.979l-6.99,16.2-35.1,12.9,16.91,18.55-5.83,20.45c-26.42-2.93-51.8-11.3-75.75-22.66-2.9-1.38-10.86-4.28-11.83-6.58l-.95-19.04c22.27,15.06,47.76,24.43,73.7,30.96.69-.71-5.87-9.67-6.9-11.05-1.78-2.39-14.42-15.25-11.68-17.44,8.82-1.35,19.5-4.19,28.01-7.31,1.72-.63,2.13.43,1.73-2.6-5.22-.1-11.32-.56-16.41-1.55-4.01-.78-20.66-6.27-22.44-5.94-.97.18-.51,3.18-2.54,2.58l-19.71-8.64-3.31-22.38c30.84,14.94,64.28,26.02,99.09,23.54v.01Z"/>
  <path class="cls-3" d="M574.805,823.749c-.74,6.64,1.88,14.99,3.79,21.59,7.44,25.65,20.66,51.31,38.33,71.29l-18,3.26-31.54-19.34-2.67,24.59-20.85,8.85c-3.11-7.78-8.4-14.51-12.05-22.04-9.76-20.11-15.07-42.15-19.88-63.92l14.56-13.15c1.58,16.56,5.23,33.67,10.57,49.53,2.79,8.29,6.93,20.02,12.97,26.04,1-4.78,4.05-27.02,8.28-28.36,4.91-2.08,24.52,16.55,26.42,14.73l-17.37-35.93-3.68,1.27-5.97-24.56,17.11-13.84-.02-.01Z"/>
  <path class="cls-2" d="M872.105,227.909c-.15,5.21,5.74,11.47,5.6,16.23-.16,5.4-13.14,33.34-11.78,34.55l24.46-1.58,12.6,18.79c-6.64,3.12-11.01,10.27-16.65,14.97-6.54,5.44-55.26,35.84-60.09,34.06-3.84-3.7-8.9-5.97-13.22-8.98-1.07-.74-2.3.22-1.62-2.75,25.62-7.13,48.51-21.69,69.37-37.8-8.35-3.31-17.82-1.47-26.67-1.84-1.56-.07-4.1-1.4-4.28-1.26-.54.4-.12,5.14-2.48,4.96l12.36-34.68c-10.74,8.04-19.85,19.49-32.19,24.79l2.47,4.92c-6.79.67-14.98,8.27-20.79,9.68-4.13,1-14.53-9.07-18.82-11.52,9.32-5.15,19.24-9.41,28.3-15.03,17.38-10.79,39.09-29.1,50.68-45.91.75-1.09-.21-2.29,2.75-1.62v.02Z"/>
  <path class="cls-2" d="M200.685,803.919c.38,5.3,1.03,11.01,1.24,16.73.06,1.49-.93,4.61,1.22,4.31,3.95-13.38,10.07-25.93,17.35-37.78l-3.7-1.22,14.87-19.89,23.52,3.18c-3.41,4.4-8.22,8.09-11.66,12.48-6.56,8.35-13.74,20.17-18.71,29.6-7.72,14.65-15.15,31.86-16.7,48.34-2.17,2.32-12.68-9-13.72-11.67-3.46-8.92-2.96-25.66-3.63-35.39l-21.9,12.18-19.08-10.49c7.79-29.99,27.79-54.61,46.77-78.32l20.22,2.91c-19.62,18.22-35.66,40.13-47.08,64.41.74,1.78,2.35.08,3.35-.36,7.09-3.15,14.3-6.24,21.11-9.98l4.04,2.31c.14,3.04-.58,6.69,2.48,8.67l.01-.02Z"/>
  <path class="cls-1" d="M200.685,803.919c-3.06-1.99-2.34-5.63-2.48-8.67-.25-5.32-.22-11.39,0-16.73.06-1.5-.94-4.61,1.23-4.32.14,9.87.55,19.89,1.25,29.72Z"/>
</svg>