<?xml version="1.0" encoding="UTF-8"?>
<svg id="Layer_1" data-name="Layer 1" xmlns="http://www.w3.org/2000/svg" viewBox="0 0 895.83 898">
  <defs>
    <style>
      .cls-1 {
        fill: #ed2224;
      }
    </style>
  </defs>
  <path class="cls-1" d="M445.75,898l-2.63-1.13c-20.9-.94-39.89,5.51-41.98-22.2-.76-10.08-.56-28.19,12.01-30.48-4.97-1.4-7.88-4.74-8.61-9.88.07-15.34.72-30.82,2.08-46.1h17.94c.4,0,1.76,1.11,2.55,1.27l.25,1.41c-.66,11.63-.97,23.16-1.17,34.81-.06,3.67-2.92,7.34,1.13,10.85,1.32,1.14,6.91,3.43,6.49.07l2.28-47.21,21.63.97-5.43,107.62h-6.54ZM432.71,856.69c-9.55-1.97-10.94,4.31-10.91,12.44.03,7.5,2.51,8.82,9.82,8.22l1.09-20.66Z"/>
  <path class="cls-1" d="M452.27.03c5.43.22,12.24.6,17.98,1.04,14.96,1.16,25.09,1.3,26.63,19.03.89,10.27,1.67,29.2-9.82,33.22v2.13c5.15,1.05,6.12,5.67,6.56,10.31.89,9.53-.26,28.16-1.14,38.08-.21,2.37-1.27,4.64-1.08,7.08-1.15.4-2.36-1.08-2.71-1.08h-17.94l2.14-45.1c-.47-3.44-4.19-4.13-7.01-4.94l-3.71,48.31-21.86-.46L445.75.03c2.16.06,4.37-.09,6.52,0h0ZM466.4,23.4c-.86,5.27.63,12.42,0,17.94l7.46-.15c2.19-3.61,4.06-17.3.52-19.5-2.66-1.65-7.36-2.06-7.98,1.72v-.01Z"/>
  <path class="cls-1" d="M.01,422.92l1.13-2.63-.03-10.4,107.62-5.45v20.66h-17.39c-1.32,4.16-1.37,8.59-.97,12.93l17.26,2.3-1.07,20.65L.01,445.75v-22.83ZM73.94,426.18l-54.36,3.26,54.35,6.54v-9.79l.01-.01Z"/>
  <path class="cls-1" d="M894.7,475.56l.05,14.77-63.65,2.12c-14.9,1.63-30.08,1.68-45.08,2.22l1.09-20.65h17.39l1.02-12.99-17.32-2.24,1.08-20.65,106.54,15.22M876.26,469.68l-54.35-6.53v9.78c15.58-1.26,33.01.19,48.36-1.11,1.32-.11,5.81-.41,5.99-2.15v.01Z"/>
  <path class="cls-1" d="M143.52,719.7l56-38.87,13.39,13.32-37.86,53.82,4.39-1.58,42.89-42.97,13.57,13.57-76.77,76.56-22.97-23.28,36.71-49.48-49.46,36.94-23.3-24.29,76.57-75.69,13.51,13.72-46.66,48.22-.01.01ZM141.34,721.9h-2.16v1.07h2.16v-1.07ZM172.86,752.32v-2.16h-1.07v2.16h1.07Z"/>
  <path class="cls-1" d="M571.85,768.63l26.11,104.36-32.52,7.53-24.01-58.61,6.46,64.08-30.97,7.46-26.52-103.49,19.48-6.11c4.21,19.36,8.22,40.46,14.01,59.43.54,1.77-.88,3.07,2.3,2.53l-5.15-63.65,19.28-5.93,28.28,61.97-16.3-65.21,19.56-4.36h-.01Z"/>
  <path class="cls-1" d="M724.06,179.39l50.56-36.77,23.34,23.19-77.71,75.54-13.08-13.03,47.32-48.92-55.99,38.95-13.15-14,38.7-54.3-48.37,45.63-13.57-13.57,76.77-75.48,23.18,23.3-38.01,49.45.01.01ZM726.23,148.96v-2.16h-1.07v2.16h1.07ZM757.76,177.24h-2.16v1.07h2.16v-1.07Z"/>
  <path class="cls-1" d="M890.41,530.56l-8.74,31.49-64.11-8.66,58.24,26.07-8.31,31.49-103.21-28.23,5.94-19.36,62.55,17.18-59.33-29.34c-.76-1.22,3.89-17.83,5.67-18.41l64.52,6.44c.57-3.25-.87-1.71-2.55-2.28-19.33-6.55-39.73-10.85-59.42-16.2l5.97-19.49,102.76,29.3h.02Z"/>
  <polygon class="cls-1" points="131.56 317.48 126.11 337.04 57.64 318.57 122.36 348.94 116.73 367.41 46.76 360.97 114.17 379.44 108.2 398.93 5.44 370.73 14.86 339.16 77.19 346.81 19.71 321.68 28.79 289.35 131.56 317.48"/>
  <polygon class="cls-1" points="403.35 109.82 383.83 114.15 365.31 44.6 371.34 117.5 353.36 122.88 324 57.65 340.36 125.5 321.82 130.49 296.16 27.15 327.23 18.5 351.15 76.12 344.75 14.26 376.23 6.99 403.35 109.82"/>
  <path class="cls-1" d="M123.96,219.63c3.64-2.42,7.74-2.92,11.98-1.66l40.19,24.51-11.44,18.48c-6.81-2.74-36.09-25.56-40.87-24.5-2.12.47-5.37,3.68-4.09,5.87l40.07,25.76-11.47,17.84-91.77-59.23c9.22-8.48,17.73-35.21,31.1-36.37,10.19-.88,40.53,15.13,36.3,29.3h0ZM103.26,230.48c9.65-9.74-16.07-24.42-17.21-12.29-.22,2.3,16.33,12.91,17.21,12.29Z"/>
  <path class="cls-1" d="M147.85,607.74l9.69,19.04-.97,1.04-95.11,48.39c-3.02-9.57-14.77-24.44-16.63-33.38-2.53-12.16,4.96-17.76,14.25-23.31,8.85-5.3,18.97-10.45,28.98-5.25.1-2.24.61-4.48,1.73-6.44,5.69-9.98,35.18-17.95,44.49-26.17l8.78,19.58-38.64,20.13c-3.63,2.24-2.41,6.65.48,9.07l42.95-22.7h0ZM88.07,639.24c-2.2-4.47-2.19-7.27-8.06-6.47-2.95.4-13.62,5.8-13.66,9.17-.01.92,1.87,6.57,3.71,6.02l18.01-8.73v.01Z"/>
  <path class="cls-1" d="M807.79,284.86c-.14,2.22.4,4.7-.23,6.85-2.43,8.24-37.87,20.56-45.43,26.85l-9.8-19.55,40.18-20.17c3.45-2.03,1.89-5.16.58-8.11l-43.48,21.72-10.21-19.03,95.04-49.33,17.4,33.55c3.74,12.51-7.77,20.16-17.24,25.23-8.66,4.63-18.19,9.63-26.81,1.99h0ZM808.86,260.96c1.86,13.14,17.59,4.92,21.57-2.53l-3.61-6.07-17.96,8.6Z"/>
  <path class="cls-1" d="M836.04,671.9c-9.27,10.01-18.24,37.98-34.09,36.87-9.84-.69-35.08-15.31-32.24-28.19l-5.98,2.25c-16.84-4.49-30.26-17.6-44.89-26.69l12.1-16.75,37.16,23.89c3.52,1.78,5.9-1.64,8.12-3.89l-41.28-27.24c1.85-2.65,9.9-18.14,12.32-17.77l88.78,57.54v-.02ZM791.04,669.78c-11.01,8.73,15.01,24.5,15.19,9.71l-15.19-9.71Z"/>
  <path class="cls-1" d="M613.17,72.85c1.16-4.35,9.21-16.05,3.27-19.02-3.32-1.66-6.25-.13-8.08,2.8l-23.42,56.05c-.72,4.74,3.29,7.27,7.57,5.29s7.38-14.47,9.64-18.7l-4.02-4.98,6.38-15.99,24.99,9.8-23.93,57.61-8.56-2.3-.14-9.66c-2.51.11-3.84,2.15-6.44,2.79-14.14,3.49-27.81-6.97-27.29-21.76.37-10.6,18.77-53.64,24.5-64.73,7.22-13.95,16.35-21.84,32.64-16.36,24.2,8.14,21.17,26.55,12.5,46.34l-19.61-7.18h0Z"/>
  <path class="cls-1" d="M221.79,106.55c-6.25,2.08-11.88,7.58-16.85,11.95-4.9-4.3-8.69-16.35-16.32-9.77-.71,1.18-.66,2.48-.61,3.79.16,4.18,11.6,17.78,14.87,22.2s18.64,25.64,21.57,27.34c4.93,2.86,10.23-.41,8.27-6.03-.76-2.18-8.1-12.48-9.85-14.12-3.17-2.97-3.3-.9-5.97,1.61l-11.31-14.84,20.01-16.65,38.59,50.55-7.07,4.53-8.14-4c1.38,10.65-9.89,22.32-20.16,22.87-8.06.44-16.34-5.34-21.72-10.91-7.51-7.77-35.68-44.47-39.11-53.3-5.78-14.89,1.05-27.24,15.01-33.88,17.42-8.29,29.29,5.92,38.79,18.66h0Z"/>
  <path class="cls-1" d="M656.65,179.4l-17.32-10.96c.03-4.89,10.08-13.74,6.46-17.82-.45-.51-9.29-6.33-9.76-6-1.01,2.75-8.9,14.35-11.24,13.99l-17.04-11.8,69.02-84.62c6.18,6.62,23.65,13.07,28.83,18.86.53.59,1.27.9.95,1.94l-49.89,96.42-.01-.01ZM648.09,132.53c2.47-.05,6.26,5.49,8,3.36l24.48-47.81-32.04,41.34-.44,3.11Z"/>
  <path class="cls-1" d="M301.16,765.36c9.63-5,19.84-4.69,27.76,3.22,9.72,9.71,5.24,22.79,1.33,34.03s-19.23,49.71-26.36,57.35c-8.65,9.28-18.24,8.9-29.22,4.17-21.29-9.18-15.95-27.84-8.87-45.49l19.04,7.61c1.19,1.3-8.49,16.03-3.2,18.96l3.77,1.25c2.24-.33,3.47-1.83,4.71-3.53,3.84-5.29,19.68-44.3,21.96-51.95.96-3.21,2.55-8.87-1.91-10.2-8.45-2.52-11.11,14.45-14.36,19.81l5.34,3.36-7.58,16.41-23.49-9.31,22.95-56.57c.95-1.6,1.34-.52,2.3-.22,7.28,2.24,5.99,3.81,5.83,11.11v-.01Z"/>
  <path class="cls-1" d="M100.03,480.53c6.44,1.01,11.03,8.76,11.86,14.78,3.04,22.09-17.43,25.89-34.3,28.56-13.86,2.2-50.53,8.14-62.03,3.63-12.78-5-17.44-23.86-12.5-35.76,4.94-11.9,20.41-14.16,31.46-16.42l2.29,1.58,1.87,18.89c-1.64,2.26-16.38-.25-17.86,6.18-.91,3.96,3.51,6.63,7,6.75,7.97-2.11,60.98-6.05,63.32-9.88l-1.33-7.54c-3.73-2.97-18.37.8-23.37,1.3l-.25,5.19-18.34,2.32-3.26-26.09,61.29-7.54c5.71,7.3-.86,9.98-5.84,14.04l-.01.01Z"/>
  <path class="cls-1" d="M888.93,414.94c-6.26,6.71-21.2,9.32-30.06,10.17l-2.18-20.66c3.97-.99,18.12-.24,18.01-5.95-.13-7.16-6.66-6.24-12.02-5.99-12.1.55-41.84,3.77-52.99,6.8-3.22.88-5.94,1.78-5.9,5.49.08,9.41,19.51,3.58,25.63,2.82l-.99-5.33,18.55-1.73,3.13,25.58-61.9,7.66-.58-8.75,8.18-5.36c-10.13-2.45-13.42-14.97-11.7-24.22s12.17-14.48,20.39-16.57c11.97-3.04,54.08-8.84,65.64-8.02,3.97.28,10.75,2.22,14.1,4.4,11.19,7.29,13.81,29.89,4.69,39.67v-.01Z"/>
  <path class="cls-1" d="M257.67,730.6l-8.7,17.35,11.43,6.49,11.74-13.94,17.04,11.81-67.93,84.71c-7.55-6.55-20.67-11.37-27.66-17.9-.93-.87-2.31-1.34-2.08-2.99l48.24-94.25c.96-1.59,1.28-.62,2.33-.24,5.33,1.95,9.75,7.76,15.58,8.96h.01ZM220.2,807.27c7.95-9.04,22.74-28.02,28.77-38.12.68-1.14,1.8-.68-.02-2.13-1.44-1.15-7.13-4.91-8.11-2.73-6.83,14.52-16.41,28.88-22.92,43.42-.36.81-1.03,3.43.58,1.61.19-1.05,1.14-1.42,1.7-2.05Z"/>
  <path class="cls-1" d="M108.74,562.08l17.37-4.36,6.54,20.65-105.91,21.63-11.55-34.15,99.54-42.9,5.86,18.84-14.67,7.19,2.83,13.09-.01.01ZM90.2,556.68l-4.32.5-47.82,20.11,54.36-11.96-2.22-8.65h0Z"/>
  <path class="cls-1" d="M667.55,787.11l-36.96-50.55,7.03-4.91,8.16,4.37c1.75-24.49,24.58-29.57,41.32-12.5,6.8,6.93,37.58,48.04,39.93,55.74,4.29,14.04-2.62,24.72-15.04,31.1-17.99,9.24-28.62-4.64-38.99-17.27l16.85-12.44c1.73.16,9.21,18.19,15.83,9.26,2.43-3.28-.15-6.38-1.82-9.21-5.59-9.5-23.31-32.71-30.92-40.84-2.54-2.72-5.23-6.25-9.06-3.74-7.83,5.15,6.21,17.19,9.08,22.26l5.46-2.31,10.81,14.19-21.68,16.85h0Z"/>
  <path class="cls-1" d="M871.9,301.18l9.79,34.72-100.56,40.29-5.82-17.98,15.72-6.99-2.9-11.91-17.28,3.17-6.56-20.64,107.61-20.65v-.01ZM856.69,324l-52.18,10.87,2.19,9.78,49.99-20.65Z"/>
  <path class="cls-1" d="M627.29,739.28l39.05,99.49-32.95,16.75-57.21-90.66,18.49-9.28,8.35,14.04,11.17-4.34-6.45-17.29,19.56-8.71h-.01ZM641.43,830.6c-6.22-16.88-13-34.04-21.17-49.9l-7.01,3.24,28.18,46.66h0Z"/>
  <path class="cls-1" d="M314.88,136.04l-13.82,6.53c-1.17.55-2.56.13-3.23-.97l-6.78-11.11c-.71-1.17-2.23-1.56-3.42-.87l-6.42,3.73c-1.08.63-1.54,1.95-1.08,3.11l4.92,12.42c.5,1.26-.08,2.68-1.32,3.23l-14.92,6.65c-1.32.59-2.86-.05-3.38-1.39l-37.29-96.4c-.47-1.21.06-2.57,1.21-3.16l26.66-13.56c.36-.18.76-.28,1.17-.27h1.32c.85.02,1.65.46,2.1,1.18l55.34,87.25c.81,1.28.32,2.98-1.05,3.63h-.01ZM253.62,72.16l-.03-.09c-.24-.81-.87-1.42-1.67-1.69-.68-.23-.55-.38-.28.36,5.48,15.1,13.9,30.01,19.33,45.34.48,1.34,1.94,2.04,3.27,1.54l3.37-1.27c1.49-.56,2.09-2.35,1.25-3.7l-24.96-39.86c-.12-.19-.22-.4-.28-.62v-.01Z"/>
  <path class="cls-1" d="M714.3,659.92l71.25,80.35c.38,1.64-.84,2.71-1.69,3.89-5.31,7.38-16.21,14.87-21.73,22.89l-85.89-65.27,13.72-14.6,13.98,10.75,8.08-10.14-10.72-13.04,12.99-14.83h.01ZM756.67,738.19l-32.1-36.96c-1.1-.27-9.3,6.32-5.9,8.1l37.99,28.86h.01ZM761.02,740.38h-2.16v1.07h2.16v-1.07Z"/>
  <path class="cls-1" d="M551.2,123.96l-19.41-4.49,1.57-17.31-11.97-3.22-4.98,17.41-20.65-4.35,32.63-103.27c9.99,4.2,24.33,4.24,34.03,7.81.85.31,1.49.59,1.69,1.57l-12.91,105.85h0ZM535.98,84.83l6.52-53.27-16.24,50.47c.42,2,7.75,2.38,9.73,2.8h-.01Z"/>
  <path class="cls-1" d="M365.18,778.53l-2.06,18.36,12.97,2.14,4.43-17.35,20.65,4.35-32.63,103.28-35.74-9.32,12.93-105.92,19.44,4.46h.01ZM370.74,815.39l-9.79-2.18-6.52,53.26c2.06-1.18,2.81-5.61,3.54-7.86,4.62-14.26,8.5-28.85,12.76-43.22h.01Z"/>
  <path class="cls-1" d="M217.44,196.82l-13.07,15.19-14.66-10.85-7.98,10.11,10.5,12.14-13.39,15.77-71.14-80.84,24.99-25.28,84.74,63.74.01.02ZM135.91,160.93l32.62,36.48h2.15c2.15-2.33,6.17-4.53,3.35-7.74l-38.12-28.73v-.01Z"/>
</svg>